<?xml version="1.0" encoding="utf-8"?>
<!-- Generator: Adobe Illustrator 24.1.0, SVG Export Plug-In . SVG Version: 6.00 Build 0)  -->
<svg version="1.1" id="Layer_1" xmlns="http://www.w3.org/2000/svg" xmlns:xlink="http://www.w3.org/1999/xlink" x="0px" y="0px"
	 viewBox="0 0 350 500" style="enable-background:new 0 0 350 500;" xml:space="preserve">
<style type="text/css">
	.st0{fill:#F7CDA3;}
	.st1{fill:none;stroke:#F0B580;stroke-width:5;stroke-miterlimit:10;}
	.st2{fill:#F0B580;}
	.st3{fill:#F1B584;}
	.st4{fill:#F7CDA3;stroke:#F1B584;stroke-width:5;stroke-miterlimit:10;}
</style>
<path class="st0" d="M350.1,371.37c-0.34-7.32-0.87-14.54-0.22-21.86c0.3-3.37,0.7-6.73,1.14-10.09
	c-0.38-15.59-0.33-31.19-0.33-46.81V154.21c0-0.91,0.03-1.82,0.08-2.72c-0.05-0.83-0.08-1.66-0.08-2.48v-45
	c-2.62-0.94-5.45-1.46-8.46-1.46c-6.45,0-12.77,2.7-17.57,7.03c0.46-1.94,0.68-3.94,0.59-6c-0.28-6.26-2.58-12.09-6.32-16.64
	c0-0.04,0-0.07,0-0.11c-0.63-14.08-11.42-25.99-25.99-25.99c-8.51,0-16.78,4.69-21.63,11.63c0.7,0.53,1.29,1.17,1.78,1.87
	c1.65,1.5,2.28,3.9,1.89,6.1c0.04,0.92-0.02,1.85-0.22,2.75c0.11,0.98,0.07,1.97-0.09,2.93c0.22,1.27,0.2,2.57-0.03,3.83
	c0.85,1.43,0.9,3.33,0.16,4.82c0.01,0.16,0,0.31,0,0.47c0.66,1.32,0.67,2.96,0.07,4.3c0.43,1.21,0.39,2.61-0.13,3.79
	c0.34,1.01,0.36,2.15,0.04,3.18c0.37,1.24,0.24,2.63-0.35,3.77c0.34,0.91,0.41,1.93,0.21,2.88c0.42,1.2,0.37,2.57-0.13,3.73
	c0.24,0.94,0.21,1.96-0.09,2.89c0.06,0.82-0.08,1.66-0.4,2.41c0.14,0.67,0.12,1.36-0.01,2.03c0.16,0.79,0.14,1.62-0.07,2.4
	c0.04,0.52-0.02,1.04-0.13,1.54c0.11,0.61,0.09,1.23-0.02,1.84c0.04,0.61-0.03,1.22-0.2,1.8c0.1,0.6,0.08,1.23-0.04,1.83
	c0.2,0.42-0.38,1.55-0.41,2.2c0.42,0.69,0.39,1.65-0.07,2.31c-0.01,0.58-0.1,1.17-0.29,1.71c0,0.41-0.06,0.82-0.15,1.22
	c0.17,0.98,0.04,2.01-0.35,2.91c0.06,0.69-0.03,1.39-0.24,2.04c0.05,0.58-0.01,1.16-0.15,1.71c0.03,0.46-0.01,0.91-0.1,1.35
	c0.1,0.98-0.09,1.98-0.54,2.84c0.04,0.54-0.01,1.08-0.13,1.6c0.21,0.6,0.14,1.29-0.17,1.83c0.09,0.46,0.01,0.94-0.2,1.36
	c0.11,0.5,0.05,1.05-0.18,1.5c0,0.38-0.1,0.76-0.29,1.08c0.02,0.4-0.09,0.8-0.28,1.15c0.07,0.47-0.03,0.96-0.27,1.37
	c0.06,0.38,0.01,0.78-0.13,1.14c0.09,0.64-0.12,1.3-0.57,1.75c0.09,0.49,0.01,1-0.22,1.44c0.09,0.6-0.08,1.23-0.47,1.68
	c0.07,0.52-0.04,1.06-0.32,1.48c0.01,0.4-0.09,0.79-0.29,1.12c0,0.35-0.09,0.7-0.25,1c-0.02,0.38-0.17,0.73-0.38,1.04
	c-0.03,0.26-0.11,0.51-0.23,0.74c-0.03,0.13-0.07,0.26-0.13,0.38c-0.33,1.4-0.61,1.98-0.98,3.38c-0.04-0.01-0.08-0.02-0.12-0.04
	c-0.01,0.53-0.21,1.04-0.57,1.41c-0.06,0.31-0.22,0.59-0.41,0.84c-0.03,0.4-0.18,0.79-0.42,1.1c-0.07,0.24-0.2,0.46-0.36,0.66
	c-0.23,0.43-0.62,0.78-1.16,0.91c-0.25,0.12-0.53,0.2-0.82,0.22c-1.2,0.11-2.4,0.4-3.6,0.59c-1.4,0.22-2.77,0.25-4.18,0.23
	c-1.4-0.02-2.76,0.18-4.15,0.23c-1.32,0.04-2.65,0.1-3.97,0.11c-0.31,0-0.57-0.06-0.81-0.15c-0.24,0.1-0.49,0.16-0.75,0.15
	c-1.08-0.01-2.15-0.12-3.22-0.2c-1.05-0.08-2.11-0.05-3.16-0.04c-2.16,0.03-4.31,0.01-6.47,0.01c-0.49,0-0.91-0.18-1.24-0.47
	c-0.24,0.11-0.52,0.17-0.84,0.18c-1.71,0.01-3.42,0.14-5.12-0.06c-1.62-0.19-3.18-0.72-4.79-0.9c-0.85-0.09-1.71,0-2.57-0.02
	c-0.91-0.02-1.83-0.12-2.74-0.24c-1.7-0.22-3.3-0.44-5.03-0.43c-0.02,0-0.04-0.01-0.07-0.01c-0.23,0.03-0.48,0.03-0.75-0.04
	c-1.61-0.38-3.24-0.37-4.89-0.36c-1.64,0.01-3.25-0.13-4.88-0.22c-3.42-0.19-6.88-0.09-10.3-0.09c-0.19,0-0.36-0.03-0.52-0.07
	c-0.32,0.22-0.7,0.36-1.11,0.36c-2.37,0-4.74,0.03-7.11-0.01c-1.03-0.02-2.08-0.05-3.12-0.03c-0.33,0.24-0.72,0.38-1.14,0.39
	c-1.04,0.02-2.02,0.13-3.03,0c-0.32,0.33-0.77,0.55-1.37,0.55c-2.98-0.01-5.98-0.27-8.92,0.29c-1.62,0.31-3.24,0.59-4.88,0.76
	c-1.54,0.16-3.07,0.13-4.6,0.38c-0.48,0.08-0.96,0.02-1.37-0.15c-5.23,1.34-10.41,2.86-15.69,4.27c-0.42,0.11-0.85,0.22-1.28,0.33
	c-0.16,0.27-0.38,0.5-0.68,0.63c-1.19,0.51-2.42,0.79-3.63,1.23c-1.06,0.38-2.18,0.75-3.19,1.17c-1.17,0.48-2.35,0.91-3.54,1.35
	c-1,0.37-1.91,0.84-2.93,1.32c-0.14,0.07-0.29,0.12-0.43,0.15c-0.21,0.33-0.51,0.59-0.86,0.71c-0.11,0.1-0.24,0.2-0.4,0.26
	c-1.18,0.51-2.35,0.95-3.58,1.09c-0.23,0.24-0.5,0.44-0.84,0.53c-0.58,0.16-1.24,0.22-1.86,0.12c-0.9,0.1-1.78,0.29-2.8,0.32
	c-1.44,0.04-2.89,0.47-4.32,0.11c-0.25-0.06-0.47-0.18-0.67-0.33c-0.27,0.16-0.6,0.26-0.99,0.27c-2.82,0.01-5.64,0.13-8.45,0.2
	c-2.76,0.06-5.51-0.08-8.27-0.09c-0.44,0-0.8-0.13-1.09-0.33c-0.31,0.19-0.66,0.3-1.01,0.3h-8.03c-0.45,0-0.86-0.16-1.18-0.41
	c-0.33,0.22-0.72,0.36-1.11,0.36H63.95c-0.29,0-0.55-0.06-0.79-0.17c-0.33,0.22-0.71,0.35-1.11,0.35c-2.79,0-5.58-0.08-8.37-0.08
	c-0.57,0-1.05-0.24-1.41-0.61c-0.35,0.28-0.78,0.45-1.23,0.45c-2,0-4.23,0.01-6.09,0.25c-2.2,0.29-4.38,0.65-6.58,0.93
	c-0.09,0.01-0.18,0-0.27,0c-0.35,0.29-0.8,0.48-1.26,0.48c-0.17,0.01-0.24,0.01-0.2,0c-0.11,0.02-0.22,0.04-0.33,0.06
	c-0.38,0.08-0.77,0.15-1.16,0.18c-0.23,0.02-0.45,0.03-0.68,0.04c-0.15,0.01-0.3,0.02-0.46,0.03c-0.25,0.03-0.3,0.03-0.15,0.01
	c-1.03,0.13-1.98,0.51-2.98,0.76c-1,0.25-2.03,0.35-3.03,0.6c-1.03,0.26-2.14,0.47-3.13,0.84c-0.12,0.04-0.24,0.07-0.36,0.08
	c-0.37,0.52-1.01,0.84-1.66,0.91c-0.11,0.01-0.22,0.02-0.34,0.04c-0.03,0.01-0.08,0.01-0.17,0.03c-0.21,0.03-0.41,0.07-0.62,0.11
	c-0.48,0.09-0.96,0.2-1.43,0.31c-0.92,0.23-1.83,0.51-2.74,0.81c-1.83,0.61-3.63,1.32-5.45,1.98c-0.31,0.11-0.63,0.11-0.92,0.04
	c-0.25,0.31-0.58,0.54-0.97,0.59c-1.08,0.15-1.42,0.43-2.43,0.86c-1.03,0.44-2.1,0.74-3.17,1.08c-0.52,0.17-1.04,0.34-1.55,0.53
	c-0.21,0.07-0.41,0.15-0.62,0.23c-0.14,0.05-0.27,0.11-0.41,0.16c-0.1,0.04-0.14,0.06-0.17,0.07c-0.56,0.24-1.1,0.52-1.63,0.81
	c0.03,20.56,0.63,41.14-0.52,61.68c0.03,0.35,0.08,0.7,0.1,1.06c0.03,0.7,0.01,1.39-0.04,2.07c0.01,0.15,0.03,0.3,0.04,0.46
	c0.02,0.38,0,0.75-0.01,1.12c0,0.05,0.01,0.1,0.01,0.15c0.03,0.65,0.02,1.3-0.03,1.94c0.25,0.03,0.49,0.06,0.74,0.07
	c0.23-0.37,0.63-0.64,1.21-0.64c0.02,0,0.03,0.01,0.05,0.01c0.27-0.22,0.6-0.37,0.97-0.4c1-0.08,1.99-0.45,2.98-0.63
	c1.1-0.21,2.21-0.38,3.33-0.39c0.48-0.01,0.96,0,1.44,0c0.27-0.12,0.53-0.21,0.81-0.33c0.29,0.11,0.57,0.21,0.86,0.32
	c0.12,0,0.24,0,0.36,0c1.09-0.04,2.13-0.07,3.21,0.12c0.34,0.06,0.61,0.27,0.8,0.55c0.09-0.01,0.18-0.03,0.27-0.02
	c1.9,0.02,3.78,0.29,5.65,0.61c1.98,0.34,3.97,0.38,5.96,0.6c1.88,0.21,3.68,0.84,5.56,1.02c1.64,0.16,3.23,0.24,4.84,0.47
	c0.22-0.14,0.49-0.22,0.82-0.21c2.88,0.11,5.76,0.04,8.64,0.03c2.71-0.01,5.42-0.2,8.12,0.13c0.24-0.23,0.56-0.37,0.99-0.37
	c3.43,0.01,6.87,0.21,10.3,0.01c3.37-0.19,6.67-0.85,10.05-0.9c0.24-0.23,0.56-0.39,0.99-0.4c1.76-0.05,3.52-0.57,5.24-0.91
	c1.74-0.34,3.47-0.69,5.21-1.02c1.71-0.32,3.41-0.62,5.1-1.01c1.74-0.39,3.49-0.75,5.28-0.8c0.3-0.01,0.55,0.07,0.76,0.19
	c0.31-0.23,0.73-0.34,1.22-0.21c0.72,0.19,1.71-0.03,2.42-0.14c1-0.15,1.98-0.36,2.97-0.56c1.93-0.39,3.86-0.85,5.81-1.06
	c1.96-0.22,3.94-0.16,5.92-0.11c0.94,0.02,1.92,0.11,2.86,0.01c0.84-0.09,1.62-0.48,2.42-0.72c0.5-0.15,0.91-0.04,1.23,0.2
	c0.24-0.23,0.56-0.38,0.99-0.38c2.7-0.02,5.38-0.4,8.07-0.56c2.72-0.16,5.44-0.07,8.16-0.07c0.24-0.25,0.58-0.42,1.04-0.42
	c1.38,0,2.76,0.05,4.13-0.03c1.4-0.08,2.8-0.28,4.19-0.45c1.4-0.17,2.8-0.39,4.2-0.46c1.36-0.07,2.71,0.05,4.06-0.09
	c0.47-0.05,0.9,0.22,1.18,0.6c0.48-0.32,1.14-0.43,1.61-0.08c0.16,0.12-0.06,0.04,0.17,0.06c0.27,0.03,0.56,0.01,0.83,0
	c0.44-0.02,0.89-0.06,1.32-0.11c1.53-0.19,2.94-0.49,4.49-0.42c3.22,0.14,7.7,1.1,10.92,1.11c0.11,0,0.17-0.02,0.22-0.04
	c1.01,0.04,2.01,0.28,2.99,0.53c1.01,0.26,2.05,0.42,3.06,0.7c2.01,0.56,4.07,1.27,5.9,2.28c0.45,0.25,0.67,0.61,0.72,1
	c0.71,0.33,1.06,0.93,1.7,1.36c0.62,0.42,1.35,0.7,2.01,1.04c1.53,0.77,2.63,1.99,3.94,3.07c1.37,1.13,2.64,2.24,3.77,3.62
	c0.59,0.72,1.23,1.44,1.7,2.25c0.24,0.41,0.45,0.85,0.59,1.31c0.14,0.43,0.18,0.87,0.34,1.29c0,0.01,0,0.02,0.01,0.02
	c0.3,0.13,0.57,0.35,0.76,0.62c0.5,0.71,0.75,1.56,1.16,2.32c0.42,0.76,0.9,1.46,1.25,2.26c0.21,0.49,0.39,0.97,0.53,1.49
	c0.05,0.18,0.1,0.37,0.17,0.54c0.02,0.03,0.07,0.13,0.09,0.17c0.05,0.09,0.1,0.18,0.15,0.27c0.2,0.35,0.41,0.68,0.58,1.05
	c0.09,0.2,0.18,0.4,0.28,0.59c0.04,0.08,0.09,0.16,0.14,0.25c0.06,0.1,0.11,0.15,0.01,0.03c0.29,0.35,0.42,0.74,0.41,1.14
	c0.31,0.16,0.57,0.45,0.69,0.9c0.23,0.84,0.54,1.65,0.77,2.49c0.18,0.66,0.3,1.31,0.58,1.94c0.61,1.38,1.24,2.67,1.61,4.14
	c0.37,1.49,0.59,3.01,0.89,4.52c0.32,1.62,0.75,3.21,0.92,4.86c0.02,0.16-0.01,0.32-0.06,0.46c0.26,0.19,0.45,0.45,0.51,0.77
	c0.31,1.75,0.62,3.52,0.76,5.29c0.06,0.8,0.08,1.46,0.22,2.18c0.18,0.91,0.38,1.8,0.5,2.72c0.04,0.28-0.04,0.53-0.19,0.75
	c0.07,0.17,0.11,0.35,0.11,0.57c0,1.08,0.25,2.14,0.26,3.22c0.02,1.17,0.08,2.34,0.15,3.5c0.15,2.37,0.22,4.75,0.22,7.12
	c0,0.4-0.13,0.72-0.34,0.95v8.71c0,0.44-0.2,0.82-0.5,1.09c0,0.04,0.03,0.08,0.03,0.12c0,3.52-0.13,7.04-0.13,10.56
	c0,0.38-0.16,0.73-0.41,1c0.17,0.28,0.23,0.62,0.22,0.97c0,0.01,0.01,0.02,0.01,0.03v10.46c0.08,0.18,0.12,0.37,0.11,0.58
	c-0.25,4.32-0.21,8.63-0.21,12.96c0,0.15-0.02,0.28-0.05,0.4c0.02,0.08,0.03,0.17,0.03,0.26c0,3.34-0.03,6.67-0.03,10.01
	c0,0.4-0.16,0.75-0.42,1.01c0.07,0.24,0.08,0.49,0,0.74c0.07,0.94,0.02,1.89,0.02,2.83c0,1.03,0,2.07,0,3.1
	c0,2.09,0.02,4.18,0.03,6.28c0,0.45-0.17,0.8-0.42,1.04c0.17,0.33,0.22,0.73,0.16,1.12c-0.14,0.92,0.02,1.93,0.03,2.86
	c0.01,1.12,0.06,2.24,0.05,3.36c-0.01,1.16-0.19,2.29-0.25,3.44c-0.06,1.12-0.02,2.25-0.01,3.37c0,0.27-0.06,0.49-0.16,0.69v8.16
	c0,0.41-0.17,0.77-0.43,1.03c0.11,0.21,0.18,0.46,0.17,0.76c-0.04,0.79-0.19,1.56-0.2,2.36c0,0.8,0.01,1.59,0.01,2.39v14.92
	c0,0.36-0.11,0.65-0.28,0.88c0.04,0.22,0.06,0.45,0.02,0.68c-0.21,1.37-0.03,3.16,0,4.68c0.03,1.71-0.02,3.42-0.02,5.13
	c0,0.46-0.23,0.87-0.57,1.14c0.03,0.12,0.05,0.24,0.05,0.38c0,2.33,0.05,4.67-0.11,7c-0.08,1.15-0.2,2.28-0.19,3.44
	c0.01,1.08,0.13,2.13,0.2,3.2c0.02,0.24-0.05,0.47-0.16,0.67c0.05,0.15,0.08,0.3,0.08,0.48c0,3.51-0.02,7.01-0.02,10.52
	c0.04,0,0.08-0.01,0.13-0.01c1.13,0,2.13,0.21,3.02,0.55c0.45-0.01,0.91-0.04,1.36-0.04c0.93,0,1.86,0.01,2.79,0.01
	c0.15,0,0.3,0,0.45,0c7.93,0.04,15.87,0.17,23.81,0.33c5.73-0.22,11.48-0.16,17.22-0.22c15.9-0.17,31.81-0.41,47.71-0.17
	c2.74,0.04,5.47,0.11,8.21,0.17c5.53-0.32,11.05-0.73,16.58-1.29c3.95-0.4,7.92,0.06,11.78,1.13c0.4,0.02,0.79,0.03,1.19,0.04
	c0.08-27.68,0.39-55.36,0.08-83.04C351.19,402.22,350.82,386.79,350.1,371.37z"/>
<path class="st1" d="M0.84,277.13C5,275,10,276,14,276c35,7,67,0,101-5c18-2,35-3,52-2c12,1,25,1,34,10c11,11,16,25,18,40
	c3,24,1,47,1,70c-1,37-1,73-3.05,110.27"/>
<g>
	<path class="st2" d="M0.53,206.46c8.31-4.04,17.03-7.29,26.06-9.43c9.02-2.14,18.38-3.17,27.73-2.47l-0.16-0.01l54.45,0.25
		l-0.17,0.01c4.81-0.42,9.58-1.6,14.25-3.27c4.68-1.63,9.3-3.66,14.02-5.55c4.75-1.88,9.55-3.66,14.71-4.8
		c5.2-1.04,10.3-1.03,14.94-2.14l0.17-0.04l0.15-0.01c10.8-0.58,21.62-0.51,32.4,0c10.78,0.51,21.53,1.48,32.23,2.79l-0.16-0.01
		c5.55,0.03,11.04,0.35,16.47,0.31c5.43-0.04,10.84-0.48,15.97-1.96l0.71,2.42c-5.44,1.63-11.1,2.12-16.65,2.22
		c-5.56,0.1-11.06-0.18-16.51-0.16l-0.08,0l-0.09-0.01c-10.65-1.2-21.33-2.06-32.03-2.47c-10.69-0.41-21.4-0.37-32.06,0.3l0.31-0.05
		c-5.21,1.27-10.33,1.3-15.04,2.31c-4.72,1.09-9.42,2.86-14.05,4.75c-4.64,1.9-9.27,3.99-14.13,5.74c-4.83,1.77-9.94,3.12-15.2,3.62
		l-0.07,0.01l-0.1,0l-54.45,0.25l-0.07,0L54,199.03c-8.79-0.57-17.68,0.48-26.29,2.61c-8.62,2.13-16.99,5.33-24.97,9.3L0.53,206.46z
		"/>
</g>
<g>
	<path class="st2" d="M18.88,237.01c-2.98-0.76-5.96-0.21-8.69,0.74c-2.74,0.98-5.3,2.39-7.76,3.97l-2.09-4.54
		c3.03-0.93,6.17-1.67,9.37-1.88c1.59-0.1,3.2-0.06,4.77,0.19C16.04,235.75,17.56,236.24,18.88,237.01z"/>
</g>
<g>
	<path class="st2" d="M202.05,234.54c3.82,3.01,7.38,6.36,10.74,9.91c3.35,3.56,6.47,7.37,9.23,11.46
		c2.76,4.09,5.16,8.49,6.94,13.21c0.86,2.37,1.57,4.81,2.08,7.33c0.47,2.52,0.72,5.1,0.73,7.71l-4.99-0.24
		c0.18-2.25,0.16-4.53-0.06-6.82c-0.26-2.28-0.71-4.56-1.32-6.82c-1.27-4.51-3.18-8.89-5.5-13.06c-2.33-4.18-5.06-8.16-8.05-11.96
		C208.84,241.48,205.6,237.86,202.05,234.54z"/>
</g>
<g>
	<polygon class="st2" points="179.79,257.92 222.22,261.77 221.49,266.71 179.75,258.19 	"/>
</g>
<g>
	<path class="st3" d="M248.18,189.23c1.2,0.46,2.43,0.91,3.7,0.96c1.26,0.08,2.54-0.05,3.7-0.54c2.34-0.95,4.19-2.85,5.61-4.98
		c2.86-4.3,4.5-9.35,5.85-14.38c2.61-10.14,3.83-20.62,4.7-31.07c0.84-10.47,1.22-20.99,1.33-31.5c0.1-10.51-0.04-21.06-0.5-31.51
		l5-0.16c0.1,10.64-0.13,21.2-0.6,31.78c-0.48,10.57-1.23,21.14-2.44,31.67c-1.25,10.51-2.85,21.04-5.85,31.26
		c-1.55,5.07-3.39,10.17-6.55,14.58c-1.57,2.17-3.62,4.18-6.24,5.13c-1.3,0.49-2.72,0.59-4.07,0.45c-1.38-0.11-2.65-0.63-3.88-1.15
		L248.18,189.23z"/>
</g>
<path class="st4" d="M227.04-0.36l0.9,9.81c0.07,0.73,0.24,1.44,0.53,2.11c2.43,5.72,14.86,33.93,29.27,47.24
	c0,0,33.78,34.91,42.08,40.84c2.92,3.35,27.75,30.02,50.87,21.34V-0.36H227.04z"/>
<g>
	<path class="st2" d="M299.83,209.75c3.13,0.25,6.24,0.77,9.32,1.47c3.08,0.72,6.14,1.66,9.09,2.99c2.94,1.33,5.83,3.05,8.24,5.58
		c2.45,2.47,4.1,6.07,4.31,9.79h-5c0.17-2.53-0.52-5.13-2.2-7.37c-1.63-2.26-3.97-4.18-6.54-5.76c-2.57-1.59-5.39-2.89-8.28-3.98
		c-2.9-1.08-5.9-1.99-8.95-2.65L299.83,209.75z"/>
</g>
</svg>
