<?xml version="1.0" encoding="utf-8"?>
<!-- Generator: Adobe Illustrator 24.1.0, SVG Export Plug-In . SVG Version: 6.00 Build 0)  -->
<svg version="1.1" xmlns="http://www.w3.org/2000/svg" xmlns:xlink="http://www.w3.org/1999/xlink" x="0px" y="0px"
	 viewBox="0 0 350 500" style="enable-background:new 0 0 350 500;" xml:space="preserve">
<style type="text/css">
	.st0{fill:#00334E;}
	.st1{fill:#F7CDA3;}
	.st2{fill:none;stroke:#16213E;stroke-miterlimit:10;}
	.st3{fill:#F0B580;}
	.st4{fill:none;stroke:#F1B584;stroke-width:5;stroke-miterlimit:10;}
	.st5{fill:none;stroke:#F0B580;stroke-width:5;stroke-miterlimit:10;}
</style>
<g id="Layer_4">
	<path class="st0" d="M118.55,20.43c-0.18-0.14-0.37-0.28-0.51-0.45c-0.45-0.23-0.83-0.54-1.12-0.93c-0.05-0.04-0.11-0.07-0.16-0.11
		c-0.53-0.2-0.97-0.51-1.3-0.92c-0.74-0.34-1.29-0.9-1.61-1.59c-0.03-0.04-0.07-0.07-0.1-0.11c-0.35-0.21-0.65-0.46-0.89-0.76
		c-0.68-0.29-1.21-0.76-1.54-1.36c-0.2-0.19-0.38-0.41-0.53-0.65c-0.58-0.37-1-0.89-1.26-1.5c-0.06-0.09-0.14-0.18-0.19-0.28
		c-0.62-0.39-1.07-0.95-1.32-1.6c-0.01-0.01-0.02-0.02-0.03-0.03c-0.84-0.53-1.35-1.42-1.51-2.37c-0.18-0.31-0.32-0.65-0.41-1.01
		c-0.35-0.44-0.61-0.95-0.73-1.51c-0.32-0.47-0.52-1.02-0.59-1.6c-0.34-0.49-0.55-1.07-0.63-1.68c-0.37-0.59-0.57-1.28-0.58-1.98
		c-0.07-0.16-0.12-0.33-0.16-0.49c-8.68-0.04-17.35-0.06-26.03-0.07c-0.21,0-0.4-0.04-0.6-0.06c0.07,0.33,0.15,0.65,0.22,0.98
		c0.12,0.59,0.22,1.19,0.29,1.78c0.56,0.78,0.99,1.74,1.23,2.92c2.78,13.88,6.93,27.64,10.14,41.45c1.62,6.98,3.49,13.91,5.07,20.9
		c0.53,2.33,0.78,5.38,1.21,8.34c0.05,0.12,0.09,0.24,0.14,0.35c0.98,1.16,1.64,2.66,1.72,4.56c-0.11-2.82,0.78,1.36,0.89,2.15
		c0.22,1.64,1.36,5.61,0.08,2.2c0.73,1.94,0.55,3.68-0.16,5.13c0.17-0.02,0.35-0.03,0.52-0.06c0.11-0.25,0.2-0.5,0.31-0.74
		c5.17-11.2,7.15-23.66,11.64-35.15c3.84-9.83,5.34-20.2,11.12-28.88c-0.83-1.16-1.26-2.56-1.37-4
		C119.3,21.09,118.88,20.8,118.55,20.43z"/>
</g>
<g id="Layer_3">
	<path class="st1" d="M329.95,1.33c0.01-0.55,0.02-1.09,0.02-1.64h-84.18c-0.87,0.04-1.75,0.08-2.62,0.11
		c-18.34,0.64-36.68,0.52-55.03,0.35c-28.32-0.26-56.64-0.53-84.96-0.65c0.25,0.7,0.56,1.38,0.77,2.1c0.31,1.01,0.61,2.02,0.93,3.03
		c0.02,0.07,0.16,0.43,0.17,0.46c0.08,0.17,0.16,0.34,0.24,0.51c0.23,0.47,0.46,0.94,0.67,1.43c0.09,0.21,0.13,0.43,0.18,0.64
		c0.16,0.35,0.31,0.71,0.43,1.07c0.55,0.26,0.9,0.74,1.07,1.28c0.29,0.26,0.5,0.58,0.63,0.94c0.05,0.06,0.1,0.13,0.15,0.2
		c0.29,0.18,0.49,0.44,0.65,0.73c0.3,0.18,0.52,0.43,0.7,0.71c0.24,0.17,0.42,0.39,0.56,0.63c0.25,0.18,0.43,0.43,0.58,0.69
		c0.43,0.22,0.74,0.56,0.94,0.97c0.01,0.01,0.03,0.03,0.04,0.04c0.18,0.12,0.34,0.26,0.47,0.42c0.14,0.13,0.28,0.26,0.42,0.38
		c0.32,0.15,0.57,0.38,0.76,0.64c0.47,0.2,0.79,0.56,1,0.98c0.1,0.06,0.18,0.14,0.26,0.22c0.22,0.09,0.41,0.22,0.57,0.37
		c0.04,0.02,0.08,0.05,0.12,0.07c0.05,0.03,0.1,0.07,0.15,0.1c0.2,0.15,0.4,0.29,0.59,0.46c0.04,0.04,0.09,0.09,0.13,0.13
		c0.14,0.16,0.27,0.33,0.39,0.51c0.23,0.11,0.43,0.23,0.59,0.4c0.27,0.11,0.5,0.27,0.69,0.46c0.44,0.14,0.78,0.41,1.03,0.74
		c1.87,0.95,1.52,4.39-1.05,4.39c-0.16,0-0.32-0.02-0.46-0.05c-0.03,1.29-0.22,2.62-0.56,4.03c-2.02,8.32-4.96,16.28-7.68,24.37
		c-0.3,0.89-0.71,1.66-1.17,2.35c0.04,1.05-0.11,2.18-0.54,3.39c-3.1,8.82-5.88,17.83-8.85,26.7c-0.42,1.25-1.03,2.29-1.75,3.15
		c-0.03,0.78-0.16,1.59-0.42,2.44c-2.78,9.08-5.41,18.3-8.47,27.33c-3.38,9.95-8.4,19.27-11.71,29.18c-0.03,0.1-0.08,0.18-0.11,0.27
		c-0.03,1.78-0.66,3.61-2.11,5.28c-0.04,0.22-0.05,0.43-0.11,0.65c-1.68,6.36-4.07,13.04-7.47,18.7c-0.46,0.77-0.96,1.5-1.48,2.22
		c-0.4,1.11-0.99,2.15-1.74,2.94c-0.46,1.15-1.22,2.27-2.36,3.3c-8.63,7.84-16.08,18.74-22.65,28.31
		c-7.25,10.55-14.96,20.93-22.65,31.16c-0.48,0.64-1,1.17-1.55,1.64c-2.48,8.26-9.57,15.58-14.05,22.87
		c-0.06,3.36-0.2,6.72-0.39,10.07c0.09,0.96,0.06,1.95-0.12,2.93c-0.04,0.2-0.06,0.4-0.1,0.6c-0.11,1.73-0.24,3.46-0.36,5.19v21.77
		c0.25,4.12,0.49,8.23,0.51,12.29c0.09,14.91,0.01,29.81,0,44.72c0.19,0.76,0.29,1.6,0.25,2.51c-0.71,19.49,0.22,38.98,0.26,58.47
		c0,0.45-0.04,0.86-0.09,1.27c0.05,0.41,0.09,0.83,0.09,1.28v73.94c0.28-0.03,0.57-0.04,0.87-0.04c14.3-0.03,28.59-0.73,42.89-0.77
		c1.51,0,2.8,0.32,3.9,0.87c15.21-0.3,30.42-0.36,45.63-0.36c0.68,0,1.31,0.07,1.9,0.19c0.6-0.12,1.24-0.19,1.93-0.19
		c64.03,0,128.05,0.19,192.07,0.24c0.5-10,1.34-19.99,1.48-30.05c0.01-0.54,0.11-1.01,0.25-1.46c-0.13-0.41-0.22-0.85-0.25-1.34
		c-0.37-8.56-0.12-17.17-0.12-25.73c0-1.08,0.3-1.95,0.78-2.66c-0.19-12.67-1.23-25.3-1.48-37.98c-0.02-0.82,0.15-1.53,0.43-2.14
		c-0.01-0.02-0.02-0.04-0.02-0.06c-2.6-10.85-2.89-23.12-2.97-34.24c0-0.49,0.07-0.92,0.18-1.33c-0.09-0.27-0.18-0.55-0.24-0.87
		c-1.69-10.41-1.96-22.13-5.24-32.13c-0.4-1.22-0.31-2.29,0.09-3.18c-0.32-0.42-0.6-0.9-0.78-1.48c-1.43-4.43-2.08-9.05-3.45-13.51
		c-1.23-4.01-3.17-8.08-3.13-12.31c-0.17-0.24-0.36-0.48-0.51-0.73c-0.56-0.96-0.75-1.9-0.67-2.77c-1.1-0.49-2.06-1.34-2.61-2.7
		c-4.08-10.01-12.56-16.3-18.88-24.74c-5.25-7.01-10.32-13.88-15.28-20.91c-0.73-0.37-1.4-0.95-1.91-1.86
		c-5.02-8.94-13.31-16.74-16.56-26.66c-0.06-0.19-0.08-0.36-0.12-0.54c-0.69-0.22-1.32-0.59-1.78-1.16
		c-0.97-1.2-1.65-2.32-2.27-3.72c-0.25-0.57-0.49-1.15-0.78-1.7c-0.09-0.16-0.18-0.31-0.27-0.47c-0.02-0.02-0.03-0.02-0.06-0.05
		c-0.48-0.48-0.83-1.03-1.06-1.61c-1.09-0.76-1.83-2.02-1.76-3.8c0.22-5.37-0.8-10.63-0.89-16.01c-0.1-5.84,0.26-11.68,0.31-17.53
		c0.01-1.4,0.53-2.47,1.29-3.25c0.02-4.53,0.14-9.05,0.28-13.58c-0.17-0.82-0.14-1.68,0.07-2.49c0.17-5.47,0.34-10.94,0.34-16.43
		c0-1.27,0.41-2.27,1.05-3.02c-0.06-7.63,1.09-15.01,1.28-22.6c0.03-1.05,0.33-1.91,0.8-2.61c-0.88-0.54-1.2-1.67-0.95-2.64
		c-0.04-0.42,0-0.85,0.15-1.23c-0.02-0.38,0.04-0.76,0.17-1.11c0-0.42,0.08-0.83,0.27-1.2c-0.06-0.33-0.05-0.67,0.01-0.99
		c-0.26-1.3,0.46-2.84,2.18-2.84c0.94,0,1.57,0.46,1.92,1.09c0.14-0.03,0.28-0.04,0.41-0.04c0.66,0,1.15,0.28,1.64,0.68
		c0.28,0.23,0.54,0.48,0.83,0.7c-0.08-0.06-0.16-0.13-0.24-0.19c0.3,0.22,0.53,0.49,0.72,0.78c2.04,0.33,3.97,1.63,5.83,2.51
		c2.15,1.02,4.37,1.88,6.58,2.78c4.66,1.91,9.45,3.48,14.06,5.51c0.31,0.13,0.54,0.36,0.73,0.62c7.66,1.52,15.5,2,23.2,3.17
		c0.96,0.15,1.68,0.52,2.23,1.01c0.64-0.36,1.4-0.59,2.3-0.6c3.97-0.06,7.83-0.79,11.75-1.34c0.82-0.12,1.63-0.08,2.39,0.08
		c2.85-0.86,5.83-1.98,8.66-3.35c0.13-0.21,0.26-0.41,0.43-0.61c2.99-3.46,6.56-6.36,9.36-10.03c2.89-3.8,3.56-8.86,5.95-12.98
		c0.1-0.17,0.22-0.31,0.33-0.46c-0.02-0.78,0.15-1.61,0.6-2.45c3.18-5.97,4.42-13.09,5.67-19.67c1.14-6,1.02-12.82,3.27-18.52
		c0.09-0.23,0.21-0.42,0.32-0.62c0.09-1.85,0.39-3.26,0.67-5.43c0.08-0.66,0.29-1.23,0.56-1.75c0.31-4.22,0.24-8.44,0.74-12.73
		c0.88-7.57,2.22-15.03,2.43-22.66c0.01-0.51,0.11-0.96,0.24-1.39C330.08,2.65,329.94,2.04,329.95,1.33z M250.62,70.68
		c0.3-0.2,0.6-0.39,0.89-0.6c0.46,0.51,0.92,1,1.39,1.48C252.15,71.26,251.39,70.97,250.62,70.68z"/>
	<g>
		<g>
			<path class="st1" d="M251.55,71.99c1.93,0,1.93-3,0-3C249.62,68.99,249.62,71.99,251.55,71.99L251.55,71.99z"/>
		</g>
	</g>
</g>
<g id="Layer_1">
	<path class="st2" d="M77.42,0.46C85,29,90,58,98.74,87.16"/>
	<g>
		<path class="st3" d="M122.75,22.49L106.4,70.05l-8.27,23.74c-2.76,7.91-5.58,15.8-8.42,23.69l-8.59,23.63
			c-2.91,7.86-5.9,15.69-8.94,23.51c-3.04,7.82-6.16,15.6-9.55,23.29l-1.26,2.89l-1.32,2.87c-0.86,1.92-1.79,3.81-2.74,5.7
			c-0.45,0.95-0.95,1.89-1.47,2.82c-0.52,0.93-1,1.87-1.55,2.79l-1.7,2.75c-0.63,0.9-1.33,1.78-2,2.67l-2.23-2.02
			c0.61-0.77,1.24-1.5,1.84-2.3l1.69-2.54c0.54-0.87,1.04-1.78,1.56-2.67c0.52-0.89,1.03-1.79,1.5-2.72
			c0.97-1.83,1.93-3.67,2.82-5.56c0.92-1.87,1.82-3.75,2.67-5.65c3.44-7.6,6.64-15.33,9.74-23.1c6.09-15.58,11.82-31.31,17.28-47.14
			c2.71-7.92,5.4-15.85,8.04-23.79c2.65-7.94,5.25-15.9,7.77-23.88c5.08-15.95,10.03-31.95,14.69-48.02L122.75,22.49z"/>
	</g>
	<g>
		<path class="st3" d="M106.59-0.2c2.97,9.95,10.01,18.81,19.18,24.36c4.58,2.78,9.72,4.74,15.08,5.58
			c5.36,0.85,10.94,0.55,16.26-0.95c-5.18,1.9-10.82,2.65-16.4,2.19c-5.59-0.45-11.1-2.07-16.15-4.63
			c-10.09-5.12-18.49-13.99-22.7-24.92L106.59-0.2z"/>
	</g>
	<g>
		<path class="st3" d="M332.64,0.64c0.1,22.8-3.13,45.49-8.19,67.59c-1.28,5.54-2.58,11-4.11,16.57c-0.83,2.81-1.77,5.54-2.88,8.26
			c-1.1,2.71-2.36,5.38-3.9,7.93c-2.99,5.11-7.05,9.82-12.11,13.24c-2.56,1.67-5.26,3.07-8.2,4.05c-2.9,0.94-5.74,1.53-8.67,1.96
			c-5.83,0.84-11.76,0.8-17.53,0.03c-2.89-0.37-5.76-0.95-8.53-1.65l-4.18-1l-4.13-1.2c-10.98-3.26-21.55-7.87-31.38-13.67
			c-9.84-5.78-19.05-12.56-27.47-20.16c-2.08-1.93-4.21-3.8-6.2-5.82l-3.02-2.99l-2.92-3.08c-3.9-4.1-7.6-8.37-11.18-12.73
			c3.99,4,7.94,8.01,12.1,11.8l3.11,2.85l3.19,2.76c2.08,1.88,4.29,3.62,6.45,5.4c8.71,7.06,18.03,13.31,27.81,18.64l1.83,1.01
			l1.87,0.93l3.74,1.86c1.24,0.63,2.53,1.14,3.8,1.72c1.28,0.55,2.53,1.15,3.82,1.66c5.17,2.04,10.39,3.92,15.74,5.39l4.01,1.12
			l4.05,0.91c2.71,0.65,5.38,1.15,8.09,1.46c5.4,0.65,10.86,0.61,16.18-0.23c2.64-0.42,5.34-1.03,7.78-1.86
			c2.41-0.84,4.73-2.08,6.87-3.51c4.25-2.96,7.72-7.03,10.35-11.66c0.68-1.14,1.28-2.35,1.89-3.54c0.56-1.23,1.14-2.44,1.63-3.71
			c1.02-2.5,1.92-5.11,2.68-7.71c1.45-5.3,2.75-10.82,4.01-16.26c2.46-10.93,4.52-21.94,6.03-33.01
			c1.53-11.07,2.34-22.22,2.56-33.38L332.64,0.64z"/>
	</g>
	<path class="st4" d="M237.36,260.44C193.59,276.85,215.48,98.1,215.48,98.1"/>
	<g>
		<path class="st3" d="M68.31,176.6c-10.94,15.05-22.83,29.28-34.2,43.82c-11.37,14.53-22.25,29.42-31.06,45.48l-4.37-2.43
			c9.17-16.34,20.34-31.34,31.9-45.84c11.56-14.51,23.55-28.59,34.51-43.4L68.31,176.6z"/>
	</g>
	<g>
		<path class="st3" d="M22.13,256.79c-2.19,0.48-4.25,1.36-6.09,2.51c-1.85,1.16-3.51,2.57-5.04,4.11
			c-3.08,3.09-5.65,6.65-8.54,10.19l-3.56-3.51c3.36-2.82,6.7-6,10.51-8.61c1.9-1.31,3.93-2.47,6.08-3.31
			C17.62,257.34,19.89,256.85,22.13,256.79z"/>
	</g>
	<g>
		<path class="st3" d="M66.62,263.68c1.08,1.72,3.32,2.81,5.13,4.58l0.04,0.04l0.04,0.05l4.6,5.76l4.24,6.04
			c1.32,2.08,2.55,4.21,3.83,6.32c1.17,2.17,2.28,4.37,3.42,6.56c4.3,8.89,7.49,18.36,9.35,28.11c1.89,9.74,2.46,19.76,1.67,29.69
			c-0.82,9.93-2.99,19.75-6.48,29.1l0.16-0.67c-0.95,9.93-1.46,19.91-1.71,29.9c-0.26,10-0.33,20.01-0.28,30.05
			c0.04,10.03,0.22,20.08,0.21,30.14c0.01,10.06-0.03,20.14-0.42,30.23l-5-0.14c0.16-10,0.14-20.02,0.01-30.06l-0.33-30.15
			c-0.05-10.06-0.05-20.15,0.28-30.24c0.34-10.09,0.95-20.19,2-30.26l0.04-0.36l0.12-0.31c3.4-8.86,5.55-18.2,6.41-27.67
			c0.91-9.47,0.49-19.06-1.06-28.47c-1.58-9.41-4.31-18.65-8.14-27.44c-1.03-2.16-2.02-4.35-3.08-6.5l-3.47-6.32l-3.82-6.12
			l-4.2-5.88l0.08,0.08c-0.77-0.81-1.63-1.55-2.54-2.34c-0.9-0.79-1.88-1.7-2.52-2.91L66.62,263.68z"/>
	</g>
	<g>
		<path class="st3" d="M227.6,321.04c-0.22-2.16-0.25-4.12-0.23-6.16c0.03-2.02,0.16-4.04,0.4-6.05c0.49-4.01,1.36-8,2.93-11.75
			c0.79-1.87,1.72-3.68,2.88-5.35c1.16-1.66,2.52-3.19,4.04-4.5c1.52-1.33,3.26-2.35,5.05-3.18c1.79-0.85,3.72-1.32,5.63-1.72
			c-3.75,1.1-7.22,3.04-9.82,5.81c-1.3,1.38-2.4,2.93-3.3,4.57c-0.9,1.65-1.58,3.41-2.12,5.21c-1.08,3.6-1.49,7.39-1.54,11.15
			c-0.02,1.89,0.06,3.77,0.23,5.65c0.17,1.85,0.42,3.79,0.79,5.49L227.6,321.04z"/>
	</g>
	<g>
		<path class="st3" d="M216.63,331.45c0.03-0.46,0.03-1.13,0.01-1.72c-0.01-0.61-0.05-1.22-0.1-1.84c-0.09-1.23-0.25-2.47-0.45-3.71
			c-0.41-2.47-1.01-4.92-1.78-7.32c-0.77-2.4-1.72-4.74-2.82-7.02c-1.12-2.27-2.4-4.46-3.79-6.59c-2.86-4.19-6.23-8.08-10.08-11.48
			c-3.84-3.4-8.07-6.38-12.56-8.96c-2.23-1.3-4.55-2.47-6.9-3.57c-2.35-1.07-4.76-2.12-7.18-3.17c-2.42-1.04-4.82-2.1-7.21-3.21
			l-3.58-1.65l-3.55-1.74c-4.73-2.31-9.38-4.78-13.85-7.56c-1.13-0.67-2.22-1.41-3.3-2.16c-1.1-0.72-2.12-1.56-3.18-2.35l-1.49-1.3
			c-0.5-0.43-0.93-0.93-1.4-1.39c-0.41-0.51-0.88-0.99-1.2-1.57c-0.19-0.27-0.34-0.57-0.46-0.87c-0.13-0.3-0.22-0.63-0.19-0.96
			c-0.01,0.33,0.09,0.65,0.22,0.94c0.13,0.3,0.29,0.58,0.49,0.85c0.34,0.56,0.82,1.01,1.25,1.5c0.48,0.44,0.93,0.91,1.44,1.32
			l1.53,1.22c1.08,0.74,2.12,1.53,3.24,2.2c1.1,0.7,2.21,1.39,3.37,2.02c4.55,2.58,9.27,4.86,14.07,6.97l3.59,1.58l3.63,1.5
			c2.41,1.02,4.85,1.98,7.3,2.91c2.44,0.94,4.88,1.89,7.35,2.9c2.44,1.03,4.87,2.13,7.22,3.38c4.72,2.46,9.23,5.37,13.39,8.78
			c4.16,3.39,7.89,7.35,11.11,11.7c1.58,2.2,3.04,4.5,4.33,6.89c1.28,2.4,2.4,4.89,3.34,7.45c0.94,2.56,1.7,5.2,2.25,7.89
			c0.27,1.35,0.51,2.7,0.66,4.08c0.08,0.69,0.15,1.38,0.2,2.08c0.05,0.72,0.08,1.36,0.07,2.21L216.63,331.45z"/>
	</g>
	<g id="Layer_5">
		<path class="st5" d="M211.83,213.01C222,230,233,246,245,262c5,6,9,13,14,18c7,5,11,12,14,20c21,65,20,133,16.49,199.62"/>
	</g>
</g>
</svg>
