<svg xmlns="http://www.w3.org/2000/svg" xmlns:xlink="http://www.w3.org/1999/xlink" width="1000" height="600" viewBox="0 0 1000 600">
  <defs>
    <clipPath id="clip-background-404">
      <rect width="1000" height="600"/>
    </clipPath>
  </defs>
  <g id="background-404" clip-path="url(#clip-background-404)">
    <rect width="1000" height="600" fill="rgba(255,255,255,0)"/>
    <g id="Group_1" data-name="Group 1" transform="translate(-448 -261)">
      <g id="planet" transform="translate(465 624)">
        <path id="Path_25" data-name="Path 25" d="M3.878,116.882C-.281,112.7-.383,106.679.351,102.272c.829-4.983,3.041-10.916,6.574-17.631,6.949-13.21,18.455-28.454,32.4-42.924s28.754-26.531,41.7-33.961C87.6,3.978,93.451,1.55,98.4.535c4.376-.9,10.485-1.105,14.729,2.986s4.261,10.2,3.527,14.609c-.83,4.984-3.042,10.916-6.574,17.631-6.948,13.21-18.454,28.454-32.4,42.924s-28.755,26.531-41.7,33.961c-6.58,3.777-24.615,11.765-32.1,4.235ZM86.309,16.963c-12.1,6.946-26.071,18.354-39.34,32.122S22.815,77.235,16.32,89.583c-6.994,13.3-5.982,18.781-5.077,19.655s6.424,1.682,19.453-5.8c12.1-6.946,26.071-18.354,39.34-32.122s24.155-28.151,30.649-40.5c6.993-13.3,6.06-18.871,5.076-19.655-2.449-1.951-10.568.7-19.453,5.8Zm0,0" transform="translate(-0.001 -0.002)" fill="#ffcd00"/>
        <path id="Path_26" data-name="Path 26" d="M120.6,70.925A56.916,56.916,0,1,1,63.682,14.008,56.916,56.916,0,0,1,120.6,70.925Zm0,0" transform="translate(-5.179 -10.725)" fill="#a0f0f2"/>
        <path id="Path_27" data-name="Path 27" d="M24.191,192.6a56.917,56.917,0,0,0,78.7.277A13.42,13.42,0,0,1,99.58,173.2a107.192,107.192,0,0,0,19.1-36.3,56.562,56.562,0,0,0-5.356-13.156c-11.669,13.536-27.656,32.079-39.179,45.435a27.816,27.816,0,0,1-43.676-1.952C19.2,151.478,17.043,130.511,16.755,119.4a56.937,56.937,0,0,0,7.436,73.2Zm0,0" transform="translate(-5.185 -91.417)" fill="#7de2e2"/>
        <path id="Path_28" data-name="Path 28" d="M113.129,3.519C108.884-.572,102.776-.363,98.4.533A40.968,40.968,0,0,0,92.648,2.2c16.627-.147,13.591,13.949,13.591,13.949-.494,3.153-2,7.914-5.554,14.669-6.495,12.348-17.379,26.731-30.649,40.5S42.8,96.492,30.7,103.437c-7.278,4.178-12.211,5.771-15.308,6.211,0,0-12.62,2.575-14.085-11.551a38.129,38.129,0,0,0-.954,4.174c-.734,4.406-.632,10.43,3.526,14.609,7.491,7.53,25.526-.458,32.106-4.235,12.945-7.43,27.753-19.492,41.7-33.961s25.452-29.714,32.4-42.924c3.532-6.715,5.744-12.648,6.574-17.631.734-4.406.718-10.519-3.527-14.609Zm0,0" transform="translate(0 0)" fill="#ffeb99"/>
        <path id="Path_29" data-name="Path 29" d="M192.944,200.186a6.783,6.783,0,0,1-9.595,0l-3.488-3.487a1.852,1.852,0,0,1,0-2.619l6.976-6.976a1.852,1.852,0,0,1,2.619,0l3.487,3.488A6.784,6.784,0,0,1,192.944,200.186Zm0,0" transform="translate(-137.29 -142.836)" fill="#57565c"/>
        <path id="Path_30" data-name="Path 30" d="M123.066,267.256c-2.826,2.826-3.293,6.942-1.042,9.193s6.366,1.784,9.192-1.042,3.293-6.942,1.042-9.193S125.893,264.43,123.066,267.256Zm0,0" transform="translate(-92.333 -202.73)" fill="#ffa6bb"/>
        <path id="Path_31" data-name="Path 31" d="M260.012,130.314c-2.826,2.826-3.293,6.942-1.042,9.193s6.366,1.783,9.192-1.043,3.293-6.942,1.042-9.192S262.838,127.488,260.012,130.314Zm0,0" transform="translate(-197.182 -97.883)" fill="#ffa6bb"/>
        <g id="Group_1-2" data-name="Group 1" transform="translate(29.632 31.328)">
          <path id="Path_32" data-name="Path 32" d="M249.15,138.886a1.811,1.811,0,0,1-2.561,0l-2.126-2.126a1.811,1.811,0,0,1,2.562-2.562l2.125,2.126A1.811,1.811,0,0,1,249.15,138.886Zm0,0" transform="translate(-216.392 -133.668)" fill="#57565c"/>
          <path id="Path_33" data-name="Path 33" d="M131.643,256.395a1.811,1.811,0,0,1-2.561,0l-2.126-2.126a1.811,1.811,0,1,1,2.561-2.561l2.126,2.126A1.81,1.81,0,0,1,131.643,256.395Zm0,0" transform="translate(-126.426 -223.636)" fill="#57565c"/>
        </g>
      </g>
      <g id="planet_1_" data-name="planet (1)" transform="translate(1225.028 736.982)">
        <g id="Group_2" data-name="Group 2" transform="translate(30.629 0.018)">
          <path id="Path_34" data-name="Path 34" d="M232.929,311.6l-20.992,19.026v6.305l7.713,4.168a52.484,52.484,0,0,0,51.376-41.739Z" transform="translate(-197.802 -236.138)" fill="#e8b5b1"/>
          <path id="Path_35" data-name="Path 35" d="M212.321,36.072l-6.963-6.079-4.373-7.574a52.439,52.439,0,0,0-17.734-9.961H170.578L145.014,27.216V86.941l10.192,10.192,28.1-6.351,35.169-38.065a52.383,52.383,0,0,0-6.157-16.644Z" transform="translate(-145.014 -9.83)" fill="#ff8f71"/>
          <path id="Path_36" data-name="Path 36" d="M200.984,59.619,147.765,90.344l-2.751,9.994,2.97,10.078,18.712-10.8a6.337,6.337,0,0,0,2.493-2.645A22.185,22.185,0,0,1,190.271,84.8a6.334,6.334,0,0,0,3.538-.837l18.512-10.688a52.39,52.39,0,0,0-11.337-13.654Z" transform="translate(-145.014 -47.031)" fill="#fad5cb"/>
          <path id="Path_37" data-name="Path 37" d="M239.1,203.071,228.826,209a7.6,7.6,0,0,1-8.794-.856,15.845,15.845,0,0,0-25.958,14.987,7.6,7.6,0,0,1-3.656,8.043l-9.84,5.681a4.806,4.806,0,0,1-5.157-.263,6.632,6.632,0,0,0-4.262-1.166v21.324H181.1l22.251-12.848a12.5,12.5,0,0,1,6.274-1.64,22.185,22.185,0,0,0,19.2-11.082,12.506,12.506,0,0,1,4.558-4.614l5.478-3.163a52.441,52.441,0,0,0,.24-20.337ZM214.374,228.32a9.5,9.5,0,1,1,3.478-12.982A9.5,9.5,0,0,1,214.374,228.32Z" transform="translate(-165.637 -160.184)" fill="#fad5cb"/>
          <path id="Path_38" data-name="Path 38" d="M202.135.018a52.726,52.726,0,0,1,16.388,2.627L189.731,19.268V6.976Z" transform="translate(-180.286 -0.018)" fill="#f2d4d3"/>
        </g>
        <g id="Group_3" data-name="Group 3" transform="translate(0 0.018)">
          <path id="Path_39" data-name="Path 39" d="M177.312,457.244l-6.362,5.766a52.727,52.727,0,0,0,16.37,2.627,80.427,80.427,0,0,1-6.382-8.393Z" transform="translate(-134.844 -360.673)" fill="#d6948c"/>
          <path id="Path_40" data-name="Path 40" d="M40.073,91.158H31.889L1.119,113.647a52.439,52.439,0,0,0-.24,20.338l4.373,7.574,1.784,9.07a52.385,52.385,0,0,0,11.337,13.654H36.15v-17.13a80.143,80.143,0,0,1,3.923-56Z" transform="translate(0 -71.908)" fill="#ff6f4d"/>
          <path id="Path_41" data-name="Path 41" d="M36.663,205.09l-32.5,18.764A52.389,52.389,0,0,0,10.32,240.5l26.562-15.335A80.309,80.309,0,0,1,36.663,205.09Z" transform="translate(-3.284 -161.777)" fill="#ffb39d"/>
          <path id="Path_42" data-name="Path 42" d="M101.947,357.142a6.607,6.607,0,0,0-3.281,6.282,4.806,4.806,0,0,1-2.351,4.6l-9.327,5.385a52.442,52.442,0,0,0,17.734,9.961l9.989-5.766a79.6,79.6,0,0,1-9.945-21.326A6.577,6.577,0,0,0,101.947,357.142Z" transform="translate(-68.615 -281.031)" fill="#ffb39d"/>
          <path id="Path_43" data-name="Path 43" d="M30.426,7.052A52.345,52.345,0,0,0,5.3,41.757L44.254,19.268A79.926,79.926,0,0,1,56.657.018,52.222,52.222,0,0,0,30.426,7.052Z" transform="translate(-4.181 -0.018)" fill="#e8b5b1"/>
        </g>
        <g id="Group_4" data-name="Group 4" transform="translate(33.723 33.785)">
          <path id="Path_44" data-name="Path 44" d="M162.621,223.135a1.584,1.584,0,1,0-2.744,1.584l1.267,2.2a1.584,1.584,0,0,0,2.744-1.584Z" transform="translate(-159.665 -209.153)" fill="#313d40"/>
          <path id="Path_45" data-name="Path 45" d="M272.052,162.881l-1.267-2.2a1.584,1.584,0,0,0-2.744,1.584l1.267,2.2a1.584,1.584,0,0,0,2.744-1.584Z" transform="translate(-244.984 -159.894)" fill="#313d40"/>
          <path id="Path_46" data-name="Path 46" d="M213.221,193a1.583,1.583,0,0,0-1.859,1.251,3.026,3.026,0,0,1-3.955,2.283,1.584,1.584,0,1,0-1.028,3,6.2,6.2,0,0,0,8.091-4.672A1.584,1.584,0,0,0,213.221,193Z" transform="translate(-195.669 -185.981)" fill="#313d40"/>
        </g>
      </g>
      <g id="globe" transform="translate(982.721 353.725)">
        <path id="Path_47" data-name="Path 47" d="M385.1,113.985a61.16,61.16,0,0,1-2.3,16.662l-1.754.177c-.142.012-.287.025-.427.03l-1.482.067a10.276,10.276,0,0,0-8.994,6.169l-.379.863a8.107,8.107,0,0,1-7.422,4.849h-6.306a2.92,2.92,0,0,1-2.915-2.638l-.252-2.52a10.217,10.217,0,0,0-4.657-7.616,3.6,3.6,0,0,1-1.655-3.037v-2.525a4.948,4.948,0,0,1,1.672-3.706L359,111.247a10.617,10.617,0,0,0,3.122-11.008,10.817,10.817,0,0,0-9.024-7.594l-1.088-.135a5.311,5.311,0,0,1-3.351-1.774,3,3,0,0,1-.367-3.449l2.256-3.858a77.775,77.775,0,0,1,9.807-13.276l2.433-3.394A61.006,61.006,0,0,1,385.1,113.985Z" transform="translate(-251.821 -41.847)" fill="#d8ff33"/>
        <path id="Path_48" data-name="Path 48" d="M129.227,88.977l1.754-.177A61.149,61.149,0,0,1,11,72.138q0-2.886.262-5.7L12,66.5l.833-.165A9.671,9.671,0,0,1,23.058,70.98a9.81,9.81,0,0,0,1.757,2.206l4.347,4.093a6.525,6.525,0,0,0,2.75,1.54l.507.14A8.839,8.839,0,0,1,38.59,85.1l2.328,8.407a8.266,8.266,0,0,0,1.387,2.79l7.06,9.256a8.939,8.939,0,0,1,1.707,3.943l1.919,11.514a1.693,1.693,0,0,0,.594,1.056,1.633,1.633,0,0,0,1.657.232,3.246,3.246,0,0,0,1.981-2.7,11.682,11.682,0,0,1,2.7-6.388l2.046-2.458a4.263,4.263,0,0,0,.8-1.48l2.1-6.818A10.165,10.165,0,0,1,68.4,97.382l6.254-4.8a2.233,2.233,0,0,0,.863-1.395,2.119,2.119,0,0,0-.482-1.727l-4.162-4.9c-.25-.292-.487-.6-.709-.908l-3.184-4.434a9.209,9.209,0,0,0-7.6-4,1.61,1.61,0,0,1-.863-.227l-6.5-3.9a6.329,6.329,0,0,0-6.216-.152l-3.426,1.837A6.736,6.736,0,0,1,33.5,70.436L30.17,65.18a7.243,7.243,0,0,1,.122-7.933,8.154,8.154,0,0,1,7.813-3.531l4.993.634a4.489,4.489,0,0,0,4.462-2.139,7.889,7.889,0,0,1,7.821-3.861l2.184.279a4.442,4.442,0,0,0,4.065-1.689l1.924-2.5a6.5,6.5,0,0,0,.195-7.7L59.6,30.768a19.176,19.176,0,0,0-6.074-5.627,19.09,19.09,0,0,1-1.832-1.215L48.2,21.3l-4.427-3.334a61.177,61.177,0,0,1,67.2,6.947l-2.433,3.394a77.776,77.776,0,0,0-9.807,13.276l-2.256,3.858a3,3,0,0,0,.367,3.449,5.311,5.311,0,0,0,3.351,1.774l1.088.135a10.817,10.817,0,0,1,9.024,7.594A10.617,10.617,0,0,1,107.181,69.4L96.411,78.913a4.948,4.948,0,0,0-1.672,3.706v2.525a3.6,3.6,0,0,0,1.655,3.037A10.217,10.217,0,0,1,101.05,95.8l.252,2.52a2.92,2.92,0,0,0,2.915,2.638h6.306a8.106,8.106,0,0,0,7.421-4.847l.38-.865a10.276,10.276,0,0,1,8.994-6.169l1.482-.067C128.94,89,129.084,88.99,129.227,88.977Z" transform="translate(0 0)" fill="#55d8d8"/>
        <path id="Path_49" data-name="Path 49" d="M75.82,110.413a2.119,2.119,0,0,1,.482,1.727,2.233,2.233,0,0,1-.863,1.395l-6.254,4.8a10.165,10.165,0,0,0-3.524,5.071l-2.1,6.818a4.263,4.263,0,0,1-.8,1.48l-2.046,2.458a11.682,11.682,0,0,0-2.7,6.388,3.246,3.246,0,0,1-1.981,2.7,1.633,1.633,0,0,1-1.657-.232,1.693,1.693,0,0,1-.594-1.056l-1.919-11.514a8.939,8.939,0,0,0-1.707-3.943l-7.06-9.256a8.266,8.266,0,0,1-1.387-2.79l-2.328-8.407a8.839,8.839,0,0,0-6.171-6.144l-.507-.14a6.525,6.525,0,0,1-2.75-1.54L25.6,94.14a9.81,9.81,0,0,1-1.757-2.206,9.671,9.671,0,0,0-10.224-4.642l-.833.165-.739-.07A61.162,61.162,0,0,1,44.559,38.92l4.427,3.334,3.5,2.625a19.091,19.091,0,0,0,1.832,1.215,19.176,19.176,0,0,1,6.074,5.627l4.15,5.982a6.5,6.5,0,0,1-.195,7.7l-1.924,2.5a4.442,4.442,0,0,1-4.065,1.689l-2.184-.279a7.889,7.889,0,0,0-7.821,3.861A4.489,4.489,0,0,1,43.888,75.3l-4.993-.634A8.154,8.154,0,0,0,31.081,78.2a7.243,7.243,0,0,0-.122,7.933l3.329,5.256a6.736,6.736,0,0,0,8.871,2.333l3.426-1.837a6.329,6.329,0,0,1,6.216.152l6.5,3.9a1.61,1.61,0,0,0,.863.227,9.209,9.209,0,0,1,7.6,4l3.184,4.434c.222.312.459.616.709.908Z" transform="translate(-0.788 -20.954)" fill="#d8ff33"/>
        <path id="Path_50" data-name="Path 50" d="M170.689,11a60.865,60.865,0,0,0-28.369,6.967l4.427,3.334,3.5,2.625a19.11,19.11,0,0,0,1.785,1.186l.275-.158a61.225,61.225,0,0,1,57.063.175l.154-.215A60.859,60.859,0,0,0,170.689,11Z" transform="translate(-98.549 -0.002)" fill="#6bf2ee"/>
        <path id="Path_51" data-name="Path 51" d="M20.982,245q0-2.886.262-5.7l.575-4.12a9.647,9.647,0,0,0-8.985-2.963L12,232.38l-.739-.07q-.258,2.819-.262,5.7a61.117,61.117,0,0,0,31.274,53.356A61,61,0,0,1,20.982,245Z" transform="translate(0 -165.877)" fill="#6bf2ee"/>
        <path id="Path_52" data-name="Path 52" d="M22.564,90.208A61.2,61.2,0,0,1,54.257,46.059a19.171,19.171,0,0,1-1.775-1.18l-3.5-2.625L44.559,38.92A61.162,61.162,0,0,0,12.05,87.387l.739.07.833-.165a9.647,9.647,0,0,1,8.942,2.915Z" transform="translate(-0.788 -20.954)" fill="#f5ff92"/>
      </g>
      <g id="full-moon" transform="translate(543.482 272.5)">
        <path id="Path_53" data-name="Path 53" d="M423.721,178.655c0,.231,0,.462-.006.691a8.715,8.715,0,1,1-2.565-14.6A38.624,38.624,0,0,1,423.721,178.655Z" transform="translate(-335.213 -128.905)" fill="#7f8a98"/>
        <path id="Path_54" data-name="Path 54" d="M82.7,53.59A8.685,8.685,0,0,0,88.5,51.376,38.755,38.755,0,0,1,15.125,68.081l.031,0a8.719,8.719,0,1,0-4.114-15.813q-.032-.785-.032-1.578A38.756,38.756,0,0,1,46.046,12.11l.008.084a8.331,8.331,0,1,0,16.489,1.9A38.861,38.861,0,0,1,85.937,36.776,8.719,8.719,0,1,0,82.7,53.59Z" transform="translate(0 -0.935)" fill="#dde2f2"/>
        <path id="Path_55" data-name="Path 55" d="M248.166,13.159a8.33,8.33,0,1,1-16.489-1.9l-.008-.084Q233.5,11,235.382,11a38.7,38.7,0,0,1,12.784,2.159Z" transform="translate(-185.623 0)" fill="#7f8a98"/>
        <path id="Path_56" data-name="Path 56" d="M16.216,256a8.719,8.719,0,1,1-.892,17.392l-.027.013a38.554,38.554,0,0,1-4.087-15.826A8.681,8.681,0,0,1,16.216,256Z" transform="translate(-0.168 -206.25)" fill="#c3cbdd"/>
        <circle id="Ellipse_200" data-name="Ellipse 200" cx="3.875" cy="3.875" r="3.875" transform="translate(62.934 70.481)" fill="#c3cbdd"/>
        <path id="Path_57" data-name="Path 57" d="M244.47,215.58a5.618,5.618,0,1,1-5.62,5.618,5.618,5.618,0,0,1,5.62-5.618Z" transform="translate(-191.804 -172.223)" fill="#848b9b"/>
        <circle id="Ellipse_201" data-name="Ellipse 201" cx="3.875" cy="3.875" r="3.875" transform="translate(29.803 27.469)" fill="#c3cbdd"/>
        <circle id="Ellipse_202" data-name="Ellipse 202" cx="1.938" cy="1.938" r="1.938" transform="translate(36.003 71.063)" fill="#6d7486"/>
        <path id="Path_58" data-name="Path 58" d="M15.755,50.685a38.764,38.764,0,0,1,30.19-37.8c.028-.233.063-.465.11-.692l-.008-.084A38.756,38.756,0,0,0,11.01,50.685q0,.792.032,1.578a8.676,8.676,0,0,1,4.713-1.573Z" transform="translate(0 -0.935)" fill="#848b9b"/>
        <path id="Path_59" data-name="Path 59" d="M41.795,362.343l-.338-.695-3.488.728a8.779,8.779,0,0,1-.892-.046l-.027.013a38.749,38.749,0,0,0,34.63,21.346c.793,0,1.579-.027,2.36-.074a38.759,38.759,0,0,1-32.245-21.272Z" transform="translate(-21.921 -295.188)" fill="#848b9b"/>
        <path id="Path_60" data-name="Path 60" d="M15.955,257.6l-.032-1.574A8.677,8.677,0,0,0,11.21,257.6,38.554,38.554,0,0,0,15.3,273.43l.027-.013a8.718,8.718,0,0,0,4.38-.682A38.558,38.558,0,0,1,15.955,257.6Z" transform="translate(-0.168 -206.275)" fill="#5f6875"/>
      </g>
      <g id="meteor" transform="translate(1303.095 421.673)">
        <path id="Path_61" data-name="Path 61" d="M126.083,53.553a4.043,4.043,0,0,1,0,5.719l-50.6,50.6a28.315,28.315,0,1,1-40.3-39.789L64.522,40.748,75.64,29.63,88.9,16.372a4.137,4.137,0,1,1,5.851,5.851L86.82,30.151a3.953,3.953,0,1,0,5.59,5.59L115.941,12.21a4.137,4.137,0,1,1,5.851,5.851L84.61,55.244a3.953,3.953,0,1,0,5.59,5.59l9.881-9.881a4.137,4.137,0,1,1,5.851,5.851l-19.4,19.4a3.953,3.953,0,1,0,5.592,5.59l28.245-28.245a4.044,4.044,0,0,1,5.719,0Z" transform="translate(0 0)" fill="#ed6337"/>
        <path id="Path_62" data-name="Path 62" d="M44.144,125.159a28.346,28.346,0,0,1-.2-40.24L73.283,55.583,84.4,44.464,95.816,33.05A4.135,4.135,0,0,0,88.9,31.206L75.64,44.464,64.522,55.583,35.186,84.919a28.226,28.226,0,0,0,24.278,47.906,27.869,27.869,0,0,1-15.319-7.666Z" transform="translate(0 -14.834)" fill="#c24e38"/>
        <path id="Path_63" data-name="Path 63" d="M99.319,286.925a21.373,21.373,0,0,1,.278,17.915,4.8,4.8,0,1,0-4.683,6.679,21.31,21.31,0,0,1-35.027-22.031l.015,0a4.6,4.6,0,0,0,.329.364,4.794,4.794,0,1,0,4.221-8.113c.193-.212.394-.421.6-.626a21.31,21.31,0,0,1,28.622-1.376l-.028.035a4.652,4.652,0,0,0-.718.587,4.581,4.581,0,1,0,6.392,6.563Z" transform="translate(-24.915 -206.077)" fill="#fadf4a"/>
        <path id="Path_64" data-name="Path 64" d="M212.24,401.339v0a21.185,21.185,0,0,1-4.409,6.409c-.09.09-.182.18-.274.267a4.793,4.793,0,1,1,4.683-6.679Z" transform="translate(-137.557 -302.576)" fill="#dcbe3f"/>
        <path id="Path_65" data-name="Path 65" d="M216.034,304.275a4.581,4.581,0,1,1-6.392-6.563,4.652,4.652,0,0,1,.719-.587l.028-.035q.782.644,1.514,1.376A21.249,21.249,0,0,1,216.034,304.275Z" transform="translate(-141.629 -223.427)" fill="#dcbe3f"/>
        <path id="Path_66" data-name="Path 66" d="M70.863,307.562a4.794,4.794,0,1,1-6.779,6.781,4.6,4.6,0,0,1-.329-.364l-.015,0A21.137,21.137,0,0,1,68.3,306.23,4.775,4.775,0,0,1,70.863,307.562Z" transform="translate(-28.767 -230.564)" fill="#dcbe3f"/>
        <circle id="Ellipse_203" data-name="Ellipse 203" cx="3.09" cy="3.09" r="3.09" transform="translate(53.547 87.846)" fill="#dcbe3f"/>
        <g id="Group_5" data-name="Group 5" transform="translate(48.731 39.462)">
          <path id="Path_67" data-name="Path 67" d="M225.774,145.658a1.314,1.314,0,0,1-.929-2.243l2.084-2.084a1.314,1.314,0,1,1,1.859,1.859l-2.085,2.084A1.309,1.309,0,0,1,225.774,145.658Z" transform="translate(-203.014 -140.945)" fill="#ffa766"/>
          <path id="Path_68" data-name="Path 68" d="M148.427,186.149a1.314,1.314,0,0,1-.929-2.244l12.421-12.421a1.314,1.314,0,1,1,1.858,1.859l-12.421,12.421a1.31,1.31,0,0,1-.929.385Z" transform="translate(-142.609 -164.494)" fill="#ffa766"/>
          <path id="Path_69" data-name="Path 69" d="M127.864,251a1.317,1.317,0,0,1-.929-.385,1.184,1.184,0,0,1-.164-.2,1.325,1.325,0,0,1-.12-.228,1.359,1.359,0,0,1-.074-.245,1.272,1.272,0,0,1-.026-.256,1.314,1.314,0,1,1,2.628,0,1.273,1.273,0,0,1-.026.256,1.246,1.246,0,0,1-.074.245,1.341,1.341,0,0,1-.12.228,1.229,1.229,0,0,1-.164.2,1.317,1.317,0,0,1-.929.386Z" transform="translate(-126.55 -224.84)" fill="#ffa766"/>
          <path id="Path_70" data-name="Path 70" d="M244.714,250.531a1.314,1.314,0,0,1-.929-2.244l3.3-3.3a1.314,1.314,0,1,1,1.859,1.859l-3.3,3.3A1.31,1.31,0,0,1,244.714,250.531Z" transform="translate(-217.805 -221.895)" fill="#ffa766"/>
          <path id="Path_71" data-name="Path 71" d="M229.391,277.438a1.314,1.314,0,0,1-.927-2.245l.053-.053A1.314,1.314,0,1,1,230.372,277l-.054.053A1.311,1.311,0,0,1,229.391,277.438Z" transform="translate(-205.839 -245.446)" fill="#ffa766"/>
          <path id="Path_72" data-name="Path 72" d="M283.179,157.745a1.314,1.314,0,0,1-.928-2.245l.037-.037a1.314,1.314,0,1,1,1.856,1.862l-.037.037a1.31,1.31,0,0,1-.928.383Z" transform="translate(-247.845 -151.984)" fill="#ffa766"/>
          <path id="Path_73" data-name="Path 73" d="M196.656,191.888a1.314,1.314,0,0,1-.929-2.244l14.729-14.729a1.314,1.314,0,1,1,1.858,1.859L197.585,191.5A1.31,1.31,0,0,1,196.656,191.888Z" transform="translate(-180.274 -167.174)" fill="#ffa766"/>
          <path id="Path_74" data-name="Path 74" d="M285.8,365.073a1.314,1.314,0,0,1-.929-2.244l1.94-1.94a1.314,1.314,0,1,1,1.858,1.859l-1.94,1.94A1.31,1.31,0,0,1,285.8,365.073Z" transform="translate(-249.891 -312.412)" fill="#ffa766"/>
          <path id="Path_75" data-name="Path 75" d="M271.1,386.28a1.314,1.314,0,0,1-.929-2.244l.115-.115a1.314,1.314,0,1,1,1.858,1.86l-.115.115A1.31,1.31,0,0,1,271.1,386.28Z" transform="translate(-238.409 -330.4)" fill="#ffa766"/>
        </g>
        <path id="Path_76" data-name="Path 76" d="M269.214,473.8a1.314,1.314,0,0,1-.929-2.243l2-2a1.314,1.314,0,1,1,1.859,1.859l-2,2a1.31,1.31,0,0,1-.93.385Z" transform="translate(-188.208 -357.819)" fill="#ccd3df"/>
        <path id="Path_77" data-name="Path 77" d="M306.767,380.708a1.314,1.314,0,0,1-.929-2.244l17.574-17.574a1.314,1.314,0,1,1,1.859,1.859L307.7,380.322a1.31,1.31,0,0,1-.93.385Z" transform="translate(-217.535 -272.951)" fill="#ccd3df"/>
        <path id="Path_78" data-name="Path 78" d="M417.87,320.311a1.314,1.314,0,0,1-.93-2.243l3.352-3.353a1.314,1.314,0,1,1,1.859,1.859l-3.352,3.352A1.311,1.311,0,0,1,417.87,320.311Z" transform="translate(-304.301 -236.89)" fill="#ccd3df"/>
        <path id="Path_79" data-name="Path 79" d="M196.656,68.755a1.314,1.314,0,0,1-.929-2.244l4.335-4.335a1.314,1.314,0,1,1,1.859,1.859l-4.335,4.335A1.311,1.311,0,0,1,196.656,68.755Z" transform="translate(-131.543 -39.668)" fill="#ccd3df"/>
        <path id="Path_80" data-name="Path 80" d="M71.55,135.453a1.314,1.314,0,0,1-.929-2.244l20.716-20.716a1.314,1.314,0,1,1,1.859,1.859L72.48,135.068A1.31,1.31,0,0,1,71.55,135.453Z" transform="translate(-33.84 -78.964)" fill="#ccd3df"/>
        <path id="Path_81" data-name="Path 81" d="M31.749,241.592a1.314,1.314,0,0,1-.93-2.243l2.109-2.11a1.314,1.314,0,0,1,1.859,1.859l-2.109,2.109A1.311,1.311,0,0,1,31.749,241.592Z" transform="translate(-2.757 -176.385)" fill="#ccd3df"/>
        <path id="Path_82" data-name="Path 82" d="M422.749,97.654a1.314,1.314,0,0,1-.929-2.243l4.175-4.175a1.314,1.314,0,1,1,1.858,1.859l-4.174,4.174A1.31,1.31,0,0,1,422.749,97.654Z" transform="translate(-308.113 -62.362)" fill="#ccd3df"/>
        <path id="Path_83" data-name="Path 83" d="M470.867,56.967a1.314,1.314,0,0,1-.929-2.244l2.09-2.09a1.314,1.314,0,1,1,1.858,1.859l-2.089,2.09a1.31,1.31,0,0,1-.93.385Z" transform="translate(-345.691 -32.215)" fill="#ccd3df"/>
        <circle id="Ellipse_204" data-name="Ellipse 204" cx="1.876" cy="1.876" r="1.876" transform="translate(54.113 74.739)" fill="#dcbe3f"/>
        <circle id="Ellipse_205" data-name="Ellipse 205" cx="1.876" cy="1.876" r="1.876" transform="translate(39.657 92.7)" fill="#dcbe3f"/>
        <circle id="Ellipse_206" data-name="Ellipse 206" cx="2.533" cy="2.533" r="2.533" transform="translate(51.978 101.681)" fill="#dcbe3f"/>
      </g>
    </g>
  </g>
</svg>
