<svg xmlns="http://www.w3.org/2000/svg" xmlns:xlink="http://www.w3.org/1999/xlink" width="1920" height="1080" viewBox="0 0 1920 1080">
  <defs>
    <clipPath id="clip-background_main">
      <rect width="1920" height="1080"/>
    </clipPath>
  </defs>
  <g id="background_main" clip-path="url(#clip-background_main)">
    <rect width="1920" height="1080" fill="#f1ebeb"/>
    <circle id="Ellipse_98" data-name="Ellipse 98" cx="36" cy="36" r="36" transform="translate(1764 250)" fill="#fc9d9d" opacity="0.39"/>
    <circle id="Ellipse_109" data-name="Ellipse 109" cx="249" cy="249" r="249" transform="translate(1610 758)" fill="#fc9d9d" opacity="0.59"/>
    <circle id="Ellipse_104" data-name="Ellipse 104" cx="160.5" cy="160.5" r="160.5" transform="translate(140 812)" fill="#40bfc1" opacity="0.45"/>
    <circle id="Ellipse_93" data-name="Ellipse 93" cx="37.5" cy="37.5" r="37.5" transform="translate(245 67)" fill="#f788a5"/>
    <path id="Path_23" data-name="Path 23" d="M39.5,0A39.5,39.5,0,1,1,0,39.5,39.5,39.5,0,0,1,39.5,0Z" transform="translate(103 237)" fill="#ff6f5e" opacity="0.39"/>
    <ellipse id="Ellipse_116" data-name="Ellipse 116" cx="18" cy="11" rx="18" ry="11" transform="translate(155.254 46.585) rotate(43)" fill="#f1ebeb"/>
    <ellipse id="Ellipse_117" data-name="Ellipse 117" cx="18" cy="11" rx="18" ry="11" transform="translate(76.254 121.585) rotate(43)" fill="#f1ebeb"/>
    <line id="Line_10" data-name="Line 10" x2="215" y2="160" transform="translate(246.5 812.5)" fill="none" stroke="#f1ebeb" stroke-linecap="round" stroke-width="20"/>
    <line id="Line_11" data-name="Line 11" x2="257" y2="188" transform="translate(206.5 832.5)" fill="none" stroke="#f1ebeb" stroke-linecap="round" stroke-width="20"/>
    <line id="Line_12" data-name="Line 12" x2="166" y2="125" transform="translate(295.5 801.5)" fill="none" stroke="#f1ebeb" stroke-linecap="round" stroke-width="20"/>
    <ellipse id="Ellipse_126" data-name="Ellipse 126" cx="14" cy="11" rx="14" ry="11" transform="translate(799 818)" fill="#fff"/>
    <path id="Union_4" data-name="Union 4" d="M0-1159c0-6.075,5.82-11,13-11a14.606,14.606,0,0,1,7.507,2.018A7,7,0,0,1,27-1161a6.967,6.967,0,0,1-1.2,3.915c-1.071,5.162-6.4,9.084-12.8,9.084C5.82-1148,0-1152.925,0-1159Z" transform="translate(528 1886)" fill="#fff"/>
    <path id="Union_5" data-name="Union 5" d="M0-1156.5a9.477,9.477,0,0,1,3.131-7.049A3.5,3.5,0,0,1,3-1164.5a3.5,3.5,0,0,1,3.336-3.5,3.5,3.5,0,0,1,3.165-2,3.5,3.5,0,0,1,3.5,3.5,3.5,3.5,0,0,1-.175,1.1A9.5,9.5,0,0,1,19-1156.5a9.5,9.5,0,0,1-9.5,9.5A9.5,9.5,0,0,1,0-1156.5Z" transform="translate(480 1871)" fill="#fff"/>
    <path id="Union_6" data-name="Union 6" d="M4.812-1156.254A3.49,3.49,0,0,1,3.5-1156a3.5,3.5,0,0,1-3.5-3.5,3.5,3.5,0,0,1,3.128-3.48A8.5,8.5,0,0,1,11.5-1170a8.5,8.5,0,0,1,8.5,8.5,8.5,8.5,0,0,1-8.5,8.5A8.485,8.485,0,0,1,4.812-1156.254Z" transform="translate(431 1854)" fill="#fff"/>
    <path id="Union_7" data-name="Union 7" d="M69-1112a7,7,0,0,1,7-7,7,7,0,0,1,7,7,7,7,0,0,1-7,7A7,7,0,0,1,69-1112Zm-36-26.5a3.5,3.5,0,0,1,3.5-3.5,3.5,3.5,0,0,1,3.5,3.5,3.5,3.5,0,0,1-3.5,3.5A3.5,3.5,0,0,1,33-1138.5Zm-21-17a3.5,3.5,0,0,1,3.5-3.5,3.5,3.5,0,0,1,3.5,3.5,3.5,3.5,0,0,1-3.5,3.5A3.5,3.5,0,0,1,12-1155.5Zm-7-8a1.5,1.5,0,0,1,1.5-1.5,1.5,1.5,0,0,1,1.5,1.5,1.5,1.5,0,0,1-1.5,1.5A1.5,1.5,0,0,1,5-1163.5ZM0-1169a1,1,0,0,1,1-1,1,1,0,0,1,1,1,1,1,0,0,1-1,1A1,1,0,0,1,0-1169Z" transform="translate(447 1864)" fill="#fff"/>
    <ellipse id="Ellipse_156" data-name="Ellipse 156" cx="4" cy="3" rx="4" ry="3" transform="translate(841 807)" fill="#fff"/>
    <ellipse id="Ellipse_157" data-name="Ellipse 157" cx="2" cy="1.5" rx="2" ry="1.5" transform="translate(850 816)" fill="#fff"/>
    <ellipse id="Ellipse_158" data-name="Ellipse 158" cx="4" cy="3" rx="4" ry="3" transform="translate(571 721)" fill="#fff"/>
  </g>
</svg>
