<svg id="Layer_1" enable-background="new 0 0 256 256" height="512" viewBox="0 0 256 256" width="512" xmlns="http://www.w3.org/2000/svg"><path d="m64.578 26.242c-.974 11.564-13.031 13.39-13.031 13.39 10.352.486 12.932 14.058 12.932 14.058.221-9.677 13.328-14.202 13.328-14.202-9.819-.587-13.229-13.246-13.229-13.246z" fill="#d5dc57"/><path d="m77.896 37.991c-8.61-.515-11.839-12.025-11.871-12.141-.191-.702-.86-1.174-1.583-1.101-.725.066-1.298.642-1.359 1.367-.86 10.215-11.32 11.963-11.761 12.033-.763.115-1.313.79-1.273 1.561.04.77.657 1.384 1.428 1.421 9.033.425 11.505 12.718 11.529 12.842.137.711.759 1.217 1.472 1.217.041 0 .084-.001.126-.005.764-.064 1.356-.693 1.374-1.459.195-8.509 12.198-12.777 12.319-12.819.676-.235 1.092-.914.995-1.623-.098-.709-.681-1.25-1.396-1.293zm-13.572 10.347c-1.357-3.13-3.711-6.908-7.591-8.878 2.933-1.405 6.413-3.914 8.207-8.274 1.551 3.071 4.202 6.881 8.339 8.724-3.01 1.64-6.928 4.406-8.955 8.428z" fill="#3a312a"/><path d="m42.868 43.222c-.689 8.179-9.217 9.471-9.217 9.471 7.322.344 9.147 9.944 9.147 9.944.156-6.844 9.427-10.045 9.427-10.045-6.944-.416-9.357-9.37-9.357-9.37z" fill="#d5dc57"/><path d="m52.315 51.094c-5.769-.345-7.977-8.186-7.999-8.265-.19-.702-.854-1.165-1.582-1.102-.726.065-1.299.643-1.36 1.368-.579 6.871-7.651 8.067-7.947 8.114-.763.115-1.313.79-1.273 1.561.04.77.657 1.384 1.428 1.421 6.038.284 7.728 8.644 7.744 8.726.136.712.759 1.22 1.472 1.22.042 0 .083-.001.125-.005.765-.063 1.358-.694 1.376-1.461.13-5.709 8.336-8.633 8.417-8.662.676-.234 1.094-.913.996-1.622-.098-.708-.683-1.25-1.397-1.293zm-9.59 6.797c-.924-1.886-2.341-3.948-4.45-5.281 1.857-1.041 3.7-2.63 4.873-4.917 1.058 1.874 2.656 3.956 4.944 5.225-1.85 1.1-3.99 2.74-5.367 4.973z" fill="#3a312a"/><path d="m42.868 16.564c-.689 8.179-9.217 9.471-9.217 9.471 7.322.344 9.147 9.944 9.147 9.944.156-6.844 9.427-10.045 9.427-10.045-6.944-.415-9.357-9.37-9.357-9.37z" fill="#d5dc57"/><path d="m52.315 24.437c-5.769-.345-7.977-8.186-7.999-8.265-.19-.702-.854-1.163-1.582-1.102-.726.065-1.299.643-1.36 1.368-.579 6.871-7.651 8.067-7.947 8.114-.762.115-1.313.79-1.273 1.56.04.771.657 1.385 1.428 1.421 6.038.284 7.728 8.644 7.744 8.726.136.712.759 1.22 1.472 1.22.042 0 .083-.001.125-.005.765-.063 1.358-.694 1.376-1.461.13-5.709 8.336-8.634 8.417-8.662.676-.234 1.094-.913.996-1.622-.098-.708-.683-1.25-1.397-1.292zm-9.59 6.796c-.924-1.886-2.341-3.948-4.45-5.281 1.857-1.042 3.7-2.631 4.873-4.918 1.058 1.874 2.656 3.956 4.944 5.225-1.85 1.101-3.99 2.741-5.367 4.974z" fill="#3a312a"/><path d="m89.71 147.86-5.25 18.58-3.82 13.54-13.29 47.02 35.42-24.15 18.25 36.59 19.36-68.52c-19.82-1.13-37.64-9.75-50.67-23.06z" fill="#8ac5dc"/><path d="m141.602 170.049c-.264-.371-.682-.601-1.136-.627-18.814-1.073-36.458-9.103-49.684-22.612-.375-.382-.925-.537-1.442-.404-.519.132-.927.531-1.073 1.046l-5.25 18.58c-.226.797.238 1.626 1.036 1.851.794.225 1.626-.238 1.851-1.036l4.559-16.134c13.078 12.525 29.958 20.122 47.972 21.576l-17.803 63.01-16.519-33.119c-.193-.388-.545-.673-.964-.782-.417-.108-.865-.031-1.223.212l-32.008 21.824 12.167-43.046c.226-.797-.238-1.626-1.035-1.852-.8-.227-1.626.238-1.852 1.035l-13.29 47.02c-.172.607.055 1.257.567 1.625.513.37 1.2.377 1.722.022l33.999-23.182 17.483 35.052c.255.512.777.831 1.342.831.047 0 .094-.002.141-.006.617-.058 1.135-.49 1.303-1.086l19.36-68.52c.122-.437.04-.907-.223-1.278z" fill="#3a312a"/><path d="m199.99 147.86c-13.03 13.31-30.85 21.93-50.67 23.06l5.52 19.54 3.84 13.57 10 35.41 18.25-36.59 35.42 24.15z" fill="#8ac5dc"/><path d="m223.794 226.592-22.36-79.14c-.146-.515-.554-.914-1.073-1.046-.518-.132-1.068.022-1.442.404-13.225 13.509-30.87 21.539-49.684 22.612-.454.026-.872.256-1.136.627s-.346.841-.222 1.278l5.52 19.54c.225.797 1.056 1.261 1.851 1.036.797-.225 1.261-1.054 1.036-1.851l-5.018-17.763c18.014-1.455 34.894-9.051 47.972-21.576l20.546 72.722-32.009-21.824c-.358-.244-.804-.32-1.223-.212-.419.109-.771.395-.964.782l-16.519 33.118-8.946-31.676c-.226-.798-1.056-1.261-1.851-1.036-.797.225-1.261 1.054-1.036 1.851l10 35.41c.168.596.686 1.028 1.303 1.086.047.004.094.006.141.006.564 0 1.086-.318 1.342-.831l17.483-35.052 34 23.182c.521.354 1.208.347 1.722-.022.511-.368.738-1.018.567-1.625z" fill="#3a312a"/><ellipse cx="144.851" cy="93.907" fill="#87796f" rx="77.138" ry="77.138" transform="matrix(.707 -.707 .707 .707 -23.977 129.93)"/><path d="m144.851 15.269c-43.361 0-78.638 35.277-78.638 78.638s35.277 78.639 78.638 78.639 78.639-35.277 78.639-78.639-35.278-78.638-78.639-78.638zm0 154.277c-41.707 0-75.638-33.931-75.638-75.639 0-41.707 33.931-75.638 75.638-75.638 41.708 0 75.639 33.931 75.639 75.638-.001 41.708-33.932 75.639-75.639 75.639z" fill="#3a312a"/><ellipse cx="144.851" cy="93.907" fill="#ef6d7a" rx="62.604" ry="62.604" transform="matrix(.994 -.113 .113 .994 -9.696 16.994)"/><path d="m144.851 29.803c-35.347 0-64.104 28.757-64.104 64.104s28.757 64.104 64.104 64.104 64.104-28.757 64.104-64.104-28.757-64.104-64.104-64.104zm0 125.209c-33.693 0-61.104-27.411-61.104-61.104s27.411-61.104 61.104-61.104 61.104 27.411 61.104 61.104-27.411 61.104-61.104 61.104z" fill="#3a312a"/><path d="m190.48 86.036c4.353-4.244 1.951-11.637-4.065-12.511l-20.359-2.958c-2.389-.347-4.454-1.848-5.523-4.012l-9.105-18.448c-2.69-5.452-10.465-5.452-13.155 0l-9.105 18.448c-1.068 2.165-3.134 3.666-5.523 4.012l-20.359 2.958c-6.016.875-8.419 8.268-4.065 12.511l14.732 14.36c1.729 1.685 2.518 4.113 2.109 6.492l-3.478 20.276c-1.028 5.992 5.262 10.562 10.643 7.733l18.209-9.573c2.137-1.124 4.69-1.124 6.827 0l18.209 9.573c5.381 2.829 11.671-1.74 10.643-7.733l-3.478-20.276c-.408-2.379.381-4.807 2.109-6.492z" fill="#d6df58"/><path d="m191.527 87.111c2.426-2.365 3.283-5.835 2.236-9.057s-3.78-5.526-7.132-6.014l-20.358-2.958c-1.901-.276-3.543-1.47-4.394-3.192l-9.105-18.448c-1.499-3.038-4.535-4.925-7.922-4.925-3.387 0-6.423 1.887-7.923 4.925l-9.104 18.449c-.85 1.722-2.492 2.916-4.393 3.192l-20.358 2.958c-3.352.487-6.086 2.792-7.132 6.014-1.047 3.222-.19 6.692 2.236 9.057l14.732 14.359c1.375 1.342 2.003 3.272 1.678 5.166l-3.478 20.276c-.573 3.339.774 6.65 3.515 8.641 2.741 1.992 6.306 2.249 9.305.673l18.209-9.573c1.7-.894 3.73-.894 5.43 0l18.21 9.573c1.304.686 2.715 1.024 4.119 1.024 1.824 0 3.636-.571 5.185-1.697 2.741-1.991 4.087-5.302 3.515-8.641l-3.478-20.276c-.325-1.893.303-3.824 1.678-5.165zm-19.367 20.031 3.478 20.276c.384 2.239-.484 4.372-2.321 5.708-1.838 1.335-4.136 1.501-6.145.444l-18.209-9.573c-2.575-1.354-5.648-1.354-8.223 0l-18.209 9.573c-2.012 1.056-4.309.891-6.146-.445-1.837-1.335-2.705-3.468-2.321-5.707l3.477-20.276c.492-2.866-.458-5.789-2.541-7.82l-14.732-14.359c-1.627-1.585-2.178-3.821-1.477-5.981.702-2.16 2.463-3.645 4.711-3.972l20.358-2.958c2.878-.418 5.365-2.225 6.652-4.833l9.104-18.448c1.005-2.037 2.961-3.253 5.233-3.253 2.271 0 4.227 1.216 5.232 3.253l9.105 18.448c1.287 2.608 3.774 4.415 6.652 4.833l20.358 2.958c2.248.327 4.009 1.812 4.711 3.972s.15 4.396-1.477 5.981l-14.732 14.36c-2.08 2.03-3.029 4.953-2.538 7.819z" fill="#3a312a"/><path d="m144.851 32.802c-3.23 0-6.4.25-9.5.74 21.61 3.39 39.5 18.14 47.34 37.93l3.94.57c3.35.49 6.09 2.79 7.13 6.01 1.05 3.22.19 6.69-2.23 9.06l-4.63 4.51c.04.76.05 1.52.05 2.29 0 11.44-3.15 22.14-8.65 31.3l.29 1.7c.58 3.34-.77 6.65-3.51 8.64-1.82 1.32-4.01 1.88-6.16 1.65-8.92 8.89-20.58 15.03-33.57 17.07 3.1.49 6.27.74 9.5.74 33.69 0 61.1-27.41 61.1-61.1 0-33.7-27.41-61.11-61.1-61.11z" fill="#d34e5c"/></svg>