<svg xmlns="http://www.w3.org/2000/svg" xmlns:xlink="http://www.w3.org/1999/xlink" width="1920" height="1080" viewBox="0 0 1920 1080">
  <defs>
    <clipPath id="clip-login">
      <rect width="1920" height="1080"/>
    </clipPath>
  </defs>
  <g id="login" clip-path="url(#clip-login)">
    <rect width="1920" height="1080" fill="#f1ebeb"/>
    <circle id="Ellipse_84" data-name="Ellipse 84" cx="163" cy="163" r="163" transform="translate(-60 -59)" fill="#604c70" opacity="0.9"/>
    <circle id="Ellipse_90" data-name="Ellipse 90" cx="47" cy="47" r="47" transform="translate(1465 525)" fill="#f5f0e3"/>
    <circle id="Ellipse_93" data-name="Ellipse 93" cx="37.5" cy="37.5" r="37.5" transform="translate(-37 692)" fill="#f788a5" opacity="0.9"/>
    <circle id="Ellipse_97" data-name="Ellipse 97" cx="114.5" cy="114.5" r="114.5" transform="translate(1049 -28)" fill="#fc9d9d" opacity="0.9"/>
    <circle id="Ellipse_98" data-name="Ellipse 98" cx="36" cy="36" r="36" transform="translate(1764 250)" fill="#fc9d9d" opacity="0.9"/>
    <circle id="Ellipse_101" data-name="Ellipse 101" cx="77.5" cy="77.5" r="77.5" transform="translate(621 814)" fill="#f5f0e3"/>
    <circle id="Ellipse_102" data-name="Ellipse 102" cx="23" cy="23" r="23" transform="translate(290 479)" fill="#4f3961"/>
    <circle id="Ellipse_104" data-name="Ellipse 104" cx="160.5" cy="160.5" r="160.5" transform="translate(152 829)" fill="#51c3c5" opacity="0.89"/>
    <path id="Path_22" data-name="Path 22" d="M39.5,0A39.5,39.5,0,1,1,0,39.5,39.5,39.5,0,0,1,39.5,0Z" transform="translate(970 930)" fill="#ff6f5e" opacity="0.9"/>
    <circle id="Ellipse_108" data-name="Ellipse 108" cx="73.5" cy="73.5" r="73.5" transform="translate(1727 708)" fill="#f3d4d4"/>
    <circle id="Ellipse_109" data-name="Ellipse 109" cx="120.5" cy="120.5" r="120.5" transform="translate(1800 970)" fill="#fc9d9d" opacity="0.8"/>
  </g>
</svg>
