<?xml version="1.0" encoding="utf-8"?>
<!-- Generator: Adobe Illustrator 24.1.0, SVG Export Plug-In . SVG Version: 6.00 Build 0)  -->
<svg version="1.1" id="Layer_1" xmlns="http://www.w3.org/2000/svg" xmlns:xlink="http://www.w3.org/1999/xlink" x="0px" y="0px"
	 viewBox="0 0 1000 1000" style="enable-background:new 0 0 1000 1000;" xml:space="preserve">
<style type="text/css">
	.st0{fill:#40BFC1;}
	.st1{display:none;}
	.st2{display:inline;}
	.st3{clip-path:url(#SVGID_2_);}
	.st4{fill:#4F3961;}
	.st5{fill:#FC9D9D;}
	.st6{fill:#FF6F5E;}
	.st7{fill:none;stroke:#FFFFFF;stroke-width:16;stroke-linecap:round;}
	.st8{fill:#707070;}
	.st9{font-family:'RowdyHeavy';}
	.st10{font-size:78.9649px;}
	.st11{opacity:0.99;fill:#FF6F5E;}
	.st12{font-size:78.96px;}
	.st13{font-size:394.4977px;}
	.st14{fill:#FFFFFF;}
	.st15{fill:none;stroke:#FFFFFF;stroke-width:5;stroke-miterlimit:10;}
</style>
<circle class="st0" cx="490.03" cy="492.5" r="453.5"/>
<g class="st1">
	<g class="st2">
		<defs>
			<rect id="SVGID_1_" x="1078" y="470" width="1000" height="1000"/>
		</defs>
		<clipPath id="SVGID_2_">
			<use xlink:href="#SVGID_1_"  style="overflow:visible;"/>
		</clipPath>
		<g id="logo_1_" class="st3">
			<rect x="1078" y="470" width="1000" height="1000"/>
			<g id="Group_1_1_" transform="translate(-491.945 -77.403)">
				<circle id="Ellipse_110_1_" class="st4" cx="1716.15" cy="712.73" r="125"/>
				<g id="Component_2_1_" transform="translate(512.945 170.403)">
					<ellipse id="Ellipse_111_1_" class="st0" cx="1519.71" cy="900.83" rx="441.5" ry="430.5"/>
				</g>
				<ellipse id="Ellipse_112_1_" class="st5" cx="1699.65" cy="1387.73" rx="57.5" ry="57"/>
				<ellipse id="Ellipse_113_1_" class="st6" cx="2430.65" cy="811.73" rx="116.5" ry="117"/>
				<line id="Line_6_1_" class="st7" x1="2461.04" y1="676.23" x2="2556.63" y2="826"/>
				<line id="Line_7_1_" class="st7" x1="2438.73" y1="687.39" x2="2548.67" y2="862.65"/>
				<line id="Line_8_1_" class="st7" x1="2408.15" y1="687.2" x2="2535.92" y2="892.92"/>
				<circle id="Ellipse_114_1_" class="st8" cx="1722.15" cy="982.73" r="35"/>
				<ellipse id="Ellipse_115_1_" class="st8" cx="2141.15" cy="1120.23" rx="35" ry="35.5"/>
			</g>
		</g>
	</g>
</g>
<text transform="matrix(1 0 0 1 418.3403 757.1914)" class="st4 st9 st10">L</text>
<text transform="matrix(1 0 0 1 424.4468 757.085)" class="st11 st9 st12">L</text>
<text transform="matrix(1 0 0 1 6.7407 757.2598)" class="st8 st9 st10">MASSAGE LEARNING KIT</text>
<g>
	<text transform="matrix(1 0 0 1 56.585 607.4943)" class="st6 st9 st13">MLK</text>
</g>
<text transform="matrix(1 0 0 1 45.4438 607.0488)"><tspan x="0" y="0" class="st14 st9 st13">M</tspan><tspan x="381.48" y="0" class="st4 st9 st13">L</tspan><tspan x="613.83" y="0" class="st14 st9 st13">K</tspan></text>
<path class="st15" d="M932.56,633.98"/>
<path class="st15" d="M48.59,633.98"/>
<path class="st15" d="M932.56,644.95"/>
<path class="st15" d="M48.59,644.95"/>
<path class="st15" d="M931.46,657.01"/>
<path class="st15" d="M47.49,657.01"/>
</svg>
