<?xml version="1.0" encoding="utf-8"?>
<!-- Generator: Adobe Illustrator 24.1.0, SVG Export Plug-In . SVG Version: 6.00 Build 0)  -->
<svg version="1.1" id="Layer_1" xmlns="http://www.w3.org/2000/svg" xmlns:xlink="http://www.w3.org/1999/xlink" x="0px" y="0px"
	 viewBox="0 0 135.8 135.8" style="enable-background:new 0 0 135.8 135.8;" xml:space="preserve">
<style type="text/css">
	.st0{fill:#5471AF;}
	.st1{fill:url(#SVGID_1_);}
	.st2{fill:#68A0F2;}
	.st3{fill:#B3E7FC;}
	.st4{fill:#FFFFFF;}
</style>
<path class="st0" d="M0,68.1C-0.1,33.5,27,3.6,61.5,0.3c34.5-3.3,66.8,20.9,73.2,55c6.4,34.1-14.8,68.5-48.2,78
	c-33.4,9.5-69.6-8.6-82-41.1C1.5,84.5,0,76.3,0,68.1"/>
<radialGradient id="SVGID_1_" cx="67.8963" cy="70.1293" r="63.1233" gradientTransform="matrix(-1 2.683936e-03 2.683936e-03 1 135.6444 -2.3946)" gradientUnits="userSpaceOnUse">
	<stop  offset="0" style="stop-color:#D4E4F7"/>
	<stop  offset="1" style="stop-color:#7FB5F7"/>
</radialGradient>
<path class="st1" d="M4.8,68.1C4.7,33.7,33.4,4.9,67.8,4.8c34.4-0.1,63.2,28.6,63.3,63s-28.6,63.2-63,63.3S4.9,102.5,4.8,68.1"/>
<path class="st2" d="M11,92.6C5.8,62.9,23.5,33,52,23.2c30.3-10.4,64.4,4.8,77.1,34.1C122.9,21.8,86.4-1.5,51.6,8
	C15.7,17.8-3.9,58.4,11,92.6"/>
<path class="st3" d="M28.6,96c8.7-1.8,18.8,10.5,26.4,13.6c14.2,5.8,31.8,3.1,44.6-5c13.5-8.5,23.1-24.8,24.6-40.8c0,0,0-0.1,0,0
	c-1,9.7-0.3,18.8-3.9,28.1c-6.1,15.5-19.2,27.7-35.1,32.6c-16.4,5.1-34.4,1.9-48.6-7.6C32.1,114,15.2,98.8,28.6,96"/>
<path class="st4" d="M66.2,100.3l0-12.9c0-5.1,0.3-4.5-4.7-4.5c-6.5,0-26.1,3.6-26.2-6.7c0-6.4-3.5-25.5,6.6-25.5
	c2.9,0,24.2,0.6,24.2-0.7l0-14.9c0-4.6,4.7-8.9,8.9-4.8l19.2,19c4,3.9,19.6,15,13,21.7c-4.9,6.7-12.3,12.4-18.1,18.2
	c-4,4-8,8-11.9,12C74.3,104,66.3,107.1,66.2,100.3"/>
<path class="st0" d="M75.7,103.9c6-6.1,12.1-12.1,18.1-18.2c4.2-4.2,17.7-13.6,15.8-20.9c-0.8-2.9-3.7-5.1-5.8-7.1L91.6,45.6
	L80.1,34.2c-2.1-2.1-4.7-5.6-7.9-6.1c-7.3-1.2-7.1,5.9-7.1,10.8l0,8.6c0,2.6-0.1,2.3-2.7,2.3c-6.8,0-28.2-3.7-28.2,7.4
	c0,6.6-3.5,26.8,7.2,26.7c4.1,0.5,8.7,0,12.8,0c3.7,0,10.9-2,10.9,2.3l0,12.6C65.3,103.8,71.3,108.3,75.7,103.9 M41.5,51.6l25.4-0.1
	c-0.3,0-2.3-30.2,7.3-20.7c2,1.2,3.8,3.8,5.4,5.4l12.8,12.7c3.5,3.5,20,15.4,14,21.4c-4.6,6.7-12.4,12.5-18.1,18.2
	C85,92,74.4,107,68.4,102.7C64,99.5,70.7,82,65.5,82l-15.5,0c-3.6,0-10.2,1.3-12.7-2.2c-2.5-3.3-1.1-10.7-1.1-14.5
	C36.2,61,34.6,51.6,41.5,51.6"/>
</svg>
